<?xml version="1.0" ?><svg style="enable-background:new 0 0 512 512;" version="1.1" viewBox="0 0 512 512" xml:space="preserve" xmlns="http://www.w3.org/2000/svg" xmlns:xlink="http://www.w3.org/1999/xlink"><g id="Layer_1"/><g id="Layer_2"><g><g><path d="M424.5,397.3H208.7c-4.1,0-7.5-3.4-7.5-7.5s3.4-7.5,7.5-7.5H417V136.4l-53.8-63.1H155.7v251.7c0,4.1-3.4,7.5-7.5,7.5     s-7.5-3.4-7.5-7.5V65.8c0-4.1,3.4-7.5,7.5-7.5h218.4c2.2,0,4.3,1,5.7,2.6l57.9,67.9c1.2,1.4,1.8,3.1,1.8,4.9v256.1     C432,393.9,428.6,397.3,424.5,397.3z"/></g><g><path d="M148.2,453.7c-37.6,0-68.2-30.6-68.2-68.2s30.6-68.2,68.2-68.2c37.6,0,68.2,30.6,68.2,68.2S185.8,453.7,148.2,453.7z      M148.2,332.4c-29.3,0-53.2,23.8-53.2,53.2s23.8,53.2,53.2,53.2c29.3,0,53.2-23.8,53.2-53.2S177.5,332.4,148.2,332.4z"/></g><g><g><path d="M358.3,144.7h-144c-4.1,0-7.5-3.4-7.5-7.5s3.4-7.5,7.5-7.5h144c4.1,0,7.5,3.4,7.5,7.5S362.5,144.7,358.3,144.7z"/></g><g><path d="M358.3,205.1h-144c-4.1,0-7.5-3.4-7.5-7.5s3.4-7.5,7.5-7.5h144c4.1,0,7.5,3.4,7.5,7.5S362.5,205.1,358.3,205.1z"/></g><g><path d="M358.3,265.4h-144c-4.1,0-7.5-3.4-7.5-7.5s3.4-7.5,7.5-7.5h144c4.1,0,7.5,3.4,7.5,7.5S362.5,265.4,358.3,265.4z"/></g><g><path d="M358.3,325.8h-144c-4.1,0-7.5-3.4-7.5-7.5s3.4-7.5,7.5-7.5h144c4.1,0,7.5,3.4,7.5,7.5S362.5,325.8,358.3,325.8z"/></g></g><g><path d="M174.6,393.1h-26.4c-4.1,0-7.5-3.4-7.5-7.5V360c0-4.1,3.4-7.5,7.5-7.5s7.5,3.4,7.5,7.5v18.1h18.9c4.1,0,7.5,3.4,7.5,7.5     S178.7,393.1,174.6,393.1z"/></g></g></g></svg>