<svg xmlns="http://www.w3.org/2000/svg" xmlns:xlink="http://www.w3.org/1999/xlink" width="300" zoomAndPan="magnify" viewBox="0 0 224.87999 197.249993" height="263" preserveAspectRatio="xMidYMid meet" version="1.0"><defs><g/></defs><path fill="#ededed" d="M 102.886719 96.441406 C 102.886719 97.4375 103.695312 98.246094 104.6875 98.246094 L 120.320312 98.246094 C 121.316406 98.246094 122.125 97.4375 122.125 96.441406 L 122.125 92.003906 C 122.496094 91.582031 122.726562 91.035156 122.726562 90.429688 C 122.726562 89.101562 121.648438 88.023438 120.320312 88.023438 L 104.6875 88.023438 C 103.363281 88.023438 102.285156 89.101562 102.285156 90.429688 C 102.285156 91.035156 102.515625 91.582031 102.886719 92.003906 Z M 120.320312 97.042969 L 104.6875 97.042969 C 104.355469 97.042969 104.089844 96.773438 104.089844 96.441406 L 104.089844 92.75 C 104.28125 92.800781 104.480469 92.835938 104.6875 92.835938 L 105.289062 92.835938 L 105.289062 94.636719 C 105.289062 95.300781 105.828125 95.839844 106.492188 95.839844 L 118.515625 95.839844 C 119.179688 95.839844 119.71875 95.300781 119.71875 94.636719 L 119.71875 92.835938 L 120.320312 92.835938 C 120.53125 92.835938 120.730469 92.800781 120.921875 92.75 L 120.921875 96.441406 C 120.921875 96.773438 120.652344 97.042969 120.320312 97.042969 Z M 118.515625 92.835938 L 118.515625 94.636719 L 106.492188 94.636719 L 106.492188 92.835938 Z M 104.6875 89.226562 L 120.320312 89.226562 C 120.984375 89.226562 121.523438 89.765625 121.523438 90.429688 C 121.523438 91.09375 120.984375 91.632812 120.320312 91.632812 L 104.6875 91.632812 C 104.027344 91.632812 103.488281 91.09375 103.488281 90.429688 C 103.488281 89.765625 104.027344 89.226562 104.6875 89.226562 Z M 104.6875 89.226562 " fill-opacity="1" fill-rule="nonzero"/><path fill="#ededed" d="M 135.953125 74.195312 L 131.730469 74.195312 C 132.136719 73.664062 132.34375 73.0625 132.347656 72.390625 L 132.347656 47.742188 L 132.945312 47.742188 C 133.941406 47.742188 134.75 46.933594 134.75 45.9375 L 134.75 39.925781 C 134.75 38.929688 133.941406 38.121094 132.945312 38.121094 L 92.0625 38.121094 C 91.070312 38.121094 90.257812 38.929688 90.257812 39.925781 L 90.257812 45.9375 C 90.257812 46.933594 91.070312 47.742188 92.0625 47.742188 L 92.664062 47.742188 L 92.664062 72.390625 C 92.664062 73.070312 92.898438 73.691406 93.28125 74.195312 L 89.058594 74.195312 C 88.0625 74.195312 87.253906 75.003906 87.253906 76 L 87.253906 83.214844 C 87.253906 84.210938 88.0625 85.019531 89.058594 85.019531 L 89.660156 85.019531 L 89.660156 109.667969 C 89.660156 112.027344 91.507812 113.878906 93.867188 113.878906 L 131.144531 113.878906 C 133.503906 113.878906 135.351562 112.027344 135.351562 109.667969 L 135.351562 85.019531 L 135.953125 85.019531 C 136.949219 85.019531 137.757812 84.210938 137.757812 83.214844 L 137.757812 76 C 137.757812 75.003906 136.949219 74.195312 135.953125 74.195312 Z M 91.460938 45.9375 L 91.460938 39.925781 C 91.460938 39.59375 91.730469 39.324219 92.0625 39.324219 L 132.945312 39.324219 C 133.277344 39.324219 133.546875 39.59375 133.546875 39.925781 L 133.546875 45.9375 C 133.546875 46.269531 133.277344 46.539062 132.945312 46.539062 L 92.0625 46.539062 C 91.730469 46.539062 91.460938 46.269531 91.460938 45.9375 Z M 93.867188 72.390625 L 93.867188 47.742188 L 131.144531 47.742188 L 131.144531 72.390625 C 131.144531 73.371094 130.316406 74.195312 129.339844 74.195312 L 95.671875 74.195312 C 94.691406 74.195312 93.867188 73.371094 93.867188 72.390625 Z M 134.148438 109.667969 C 134.148438 111.355469 132.828125 112.675781 131.144531 112.675781 L 93.867188 112.675781 C 92.179688 112.675781 90.859375 111.355469 90.859375 109.667969 L 90.859375 85.019531 L 134.148438 85.019531 Z M 136.554688 83.214844 C 136.554688 83.546875 136.285156 83.816406 135.953125 83.816406 L 89.058594 83.816406 C 88.726562 83.816406 88.457031 83.546875 88.457031 83.214844 L 88.457031 76 C 88.457031 75.667969 88.726562 75.398438 89.058594 75.398438 L 135.953125 75.398438 C 136.285156 75.398438 136.554688 75.667969 136.554688 76 Z M 136.554688 83.214844 " fill-opacity="1" fill-rule="nonzero"/><path fill="#ededed" d="M 119.117188 50.148438 L 105.890625 50.148438 C 104.566406 50.148438 103.488281 51.226562 103.488281 52.550781 C 103.488281 53.15625 103.71875 53.703125 104.089844 54.125 L 104.089844 58.5625 C 104.089844 59.558594 104.898438 60.367188 105.890625 60.367188 L 119.117188 60.367188 C 120.113281 60.367188 120.921875 59.558594 120.921875 58.5625 L 120.921875 54.125 C 121.292969 53.703125 121.523438 53.15625 121.523438 52.550781 C 121.523438 51.226562 120.445312 50.148438 119.117188 50.148438 Z M 105.890625 51.347656 L 119.117188 51.347656 C 119.78125 51.347656 120.320312 51.890625 120.320312 52.550781 C 120.320312 52.910156 120.160156 53.230469 119.910156 53.449219 C 119.90625 53.457031 119.898438 53.460938 119.890625 53.464844 C 119.671875 53.65625 119.414062 53.753906 119.117188 53.753906 L 105.890625 53.753906 C 105.59375 53.753906 105.328125 53.640625 105.117188 53.464844 C 105.113281 53.460938 105.105469 53.457031 105.101562 53.449219 C 104.828125 53.214844 104.691406 52.914062 104.6875 52.550781 C 104.6875 51.890625 105.226562 51.347656 105.890625 51.347656 Z M 107.695312 54.957031 L 117.316406 54.957031 L 117.316406 56.761719 L 107.695312 56.761719 Z M 119.117188 59.164062 L 105.890625 59.164062 C 105.558594 59.164062 105.289062 58.894531 105.289062 58.5625 L 105.289062 54.871094 C 105.484375 54.921875 105.683594 54.957031 105.890625 54.957031 L 106.492188 54.957031 L 106.492188 56.761719 C 106.492188 57.421875 107.03125 57.964844 107.695312 57.964844 L 117.316406 57.964844 C 117.976562 57.964844 118.515625 57.421875 118.515625 56.761719 L 118.515625 54.957031 L 119.117188 54.957031 C 119.328125 54.957031 119.527344 54.921875 119.71875 54.871094 L 119.71875 58.5625 C 119.71875 58.894531 119.449219 59.164062 119.117188 59.164062 Z M 119.117188 59.164062 " fill-opacity="1" fill-rule="nonzero"/><g fill="#ededed" fill-opacity="1"><g transform="translate(38.004239, 152.9077)"><g><path d="M 13.890625 -13.984375 C 14.304688 -13.140625 14.515625 -12.195312 14.515625 -11.15625 C 14.515625 -10.125 14.304688 -9.1875 13.890625 -8.34375 C 13.472656 -7.507812 12.9375 -6.847656 12.28125 -6.359375 C 10.957031 -5.335938 9.585938 -4.828125 8.171875 -4.828125 L 5.1875 -4.828125 L 5.1875 -2.125 C 5.1875 -1.757812 5.171875 -1.484375 5.140625 -1.296875 C 5.117188 -1.117188 5.046875 -0.910156 4.921875 -0.671875 C 4.703125 -0.242188 4.082031 -0.03125 3.0625 -0.03125 C 1.945312 -0.03125 1.289062 -0.320312 1.09375 -0.90625 C 1 -1.175781 0.953125 -1.59375 0.953125 -2.15625 L 0.953125 -15.421875 C 0.953125 -15.785156 0.960938 -16.054688 0.984375 -16.234375 C 1.015625 -16.421875 1.09375 -16.632812 1.21875 -16.875 C 1.4375 -17.300781 2.054688 -17.515625 3.078125 -17.515625 L 8.203125 -17.515625 C 9.597656 -17.515625 10.957031 -17.007812 12.28125 -16 C 12.9375 -15.5 13.472656 -14.828125 13.890625 -13.984375 Z M 8.203125 -9.0625 C 8.679688 -9.0625 9.148438 -9.234375 9.609375 -9.578125 C 10.066406 -9.929688 10.296875 -10.457031 10.296875 -11.15625 C 10.296875 -11.863281 10.066406 -12.394531 9.609375 -12.75 C 9.148438 -13.113281 8.671875 -13.296875 8.171875 -13.296875 L 5.1875 -13.296875 L 5.1875 -9.0625 Z M 8.203125 -9.0625 "/></g></g></g><g fill="#ededed" fill-opacity="1"><g transform="translate(53.114817, 152.9077)"><g><path d="M 14.375 -2.96875 C 14.601562 -2.394531 14.71875 -1.976562 14.71875 -1.71875 C 14.71875 -1.113281 14.226562 -0.601562 13.25 -0.1875 C 12.738281 0.03125 12.328125 0.140625 12.015625 0.140625 C 11.703125 0.140625 11.445312 0.0664062 11.25 -0.078125 C 11.050781 -0.234375 10.90625 -0.390625 10.8125 -0.546875 C 10.644531 -0.847656 10.019531 -2.289062 8.9375 -4.875 L 8.203125 -4.828125 L 5.1875 -4.828125 L 5.1875 -2.125 C 5.1875 -1.757812 5.171875 -1.484375 5.140625 -1.296875 C 5.117188 -1.117188 5.046875 -0.910156 4.921875 -0.671875 C 4.703125 -0.242188 4.082031 -0.03125 3.0625 -0.03125 C 1.945312 -0.03125 1.289062 -0.320312 1.09375 -0.90625 C 1 -1.175781 0.953125 -1.59375 0.953125 -2.15625 L 0.953125 -15.421875 C 0.953125 -15.785156 0.960938 -16.054688 0.984375 -16.234375 C 1.015625 -16.421875 1.09375 -16.632812 1.21875 -16.875 C 1.4375 -17.300781 2.054688 -17.515625 3.078125 -17.515625 L 8.25 -17.515625 C 9.644531 -17.515625 11.003906 -17.007812 12.328125 -16 C 12.972656 -15.5 13.5 -14.828125 13.90625 -13.984375 C 14.320312 -13.140625 14.53125 -12.203125 14.53125 -11.171875 C 14.53125 -9.367188 13.929688 -7.882812 12.734375 -6.71875 C 13.085938 -5.875 13.632812 -4.625 14.375 -2.96875 Z M 5.1875 -9.0625 L 8.25 -9.0625 C 8.707031 -9.0625 9.164062 -9.234375 9.625 -9.578125 C 10.09375 -9.929688 10.328125 -10.457031 10.328125 -11.15625 C 10.328125 -11.863281 10.09375 -12.394531 9.625 -12.75 C 9.164062 -13.113281 8.691406 -13.296875 8.203125 -13.296875 L 5.1875 -13.296875 Z M 5.1875 -9.0625 "/></g></g></g><g fill="#ededed" fill-opacity="1"><g transform="translate(68.201487, 152.9077)"><g><path d="M 9.1875 -17.734375 C 11.539062 -17.734375 13.582031 -16.878906 15.3125 -15.171875 C 17.050781 -13.472656 17.921875 -11.359375 17.921875 -8.828125 C 17.921875 -6.304688 17.09375 -4.15625 15.4375 -2.375 C 13.78125 -0.601562 11.738281 0.28125 9.3125 0.28125 C 6.894531 0.28125 4.835938 -0.59375 3.140625 -2.34375 C 1.441406 -4.09375 0.59375 -6.179688 0.59375 -8.609375 C 0.59375 -9.929688 0.832031 -11.171875 1.3125 -12.328125 C 1.789062 -13.484375 2.425781 -14.453125 3.21875 -15.234375 C 4.019531 -16.015625 4.9375 -16.625 5.96875 -17.0625 C 7.007812 -17.507812 8.082031 -17.734375 9.1875 -17.734375 Z M 4.828125 -8.71875 C 4.828125 -7.300781 5.285156 -6.148438 6.203125 -5.265625 C 7.117188 -4.378906 8.140625 -3.9375 9.265625 -3.9375 C 10.398438 -3.9375 11.421875 -4.367188 12.328125 -5.234375 C 13.242188 -6.097656 13.703125 -7.253906 13.703125 -8.703125 C 13.703125 -10.148438 13.242188 -11.3125 12.328125 -12.1875 C 11.410156 -13.0625 10.382812 -13.5 9.25 -13.5 C 8.113281 -13.5 7.09375 -13.054688 6.1875 -12.171875 C 5.28125 -11.296875 4.828125 -10.144531 4.828125 -8.71875 Z M 4.828125 -8.71875 "/></g></g></g><g fill="#ededed" fill-opacity="1"><g transform="translate(86.731068, 152.9077)"><g><path d="M 3.078125 -17.546875 L 7.5 -17.515625 C 9.8125 -17.515625 11.84375 -16.679688 13.59375 -15.015625 C 15.351562 -13.359375 16.234375 -11.3125 16.234375 -8.875 C 16.234375 -6.445312 15.375 -4.363281 13.65625 -2.625 C 11.945312 -0.894531 9.875 -0.03125 7.4375 -0.03125 L 3.0625 -0.03125 C 2.09375 -0.03125 1.488281 -0.226562 1.25 -0.625 C 1.050781 -0.957031 0.953125 -1.46875 0.953125 -2.15625 L 0.953125 -15.4375 C 0.953125 -15.820312 0.960938 -16.101562 0.984375 -16.28125 C 1.015625 -16.457031 1.09375 -16.664062 1.21875 -16.90625 C 1.4375 -17.332031 2.054688 -17.546875 3.078125 -17.546875 Z M 7.5 -4.25 C 8.65625 -4.25 9.691406 -4.675781 10.609375 -5.53125 C 11.535156 -6.382812 12 -7.457031 12 -8.75 C 12 -10.039062 11.546875 -11.117188 10.640625 -11.984375 C 9.742188 -12.859375 8.691406 -13.296875 7.484375 -13.296875 L 5.1875 -13.296875 L 5.1875 -4.25 Z M 7.5 -4.25 "/></g></g></g><g fill="#ededed" fill-opacity="1"><g transform="translate(103.563101, 152.9077)"><g><path d="M 12.40625 -16.875 C 12.5625 -17.132812 12.789062 -17.3125 13.09375 -17.40625 C 13.40625 -17.5 13.785156 -17.546875 14.234375 -17.546875 C 14.691406 -17.546875 15.054688 -17.503906 15.328125 -17.421875 C 15.597656 -17.347656 15.800781 -17.253906 15.9375 -17.140625 C 16.082031 -17.023438 16.1875 -16.859375 16.25 -16.640625 C 16.351562 -16.367188 16.40625 -15.953125 16.40625 -15.390625 L 16.40625 -8.171875 C 16.40625 -6.066406 15.75 -4.15625 14.4375 -2.4375 C 13.800781 -1.625 12.976562 -0.96875 11.96875 -0.46875 C 10.96875 0.03125 9.859375 0.28125 8.640625 0.28125 C 7.421875 0.28125 6.3125 0.0234375 5.3125 -0.484375 C 4.320312 -0.992188 3.515625 -1.660156 2.890625 -2.484375 C 1.597656 -4.171875 0.953125 -6.082031 0.953125 -8.21875 L 0.953125 -15.421875 C 0.953125 -15.804688 0.960938 -16.085938 0.984375 -16.265625 C 1.015625 -16.453125 1.09375 -16.664062 1.21875 -16.90625 C 1.34375 -17.144531 1.554688 -17.3125 1.859375 -17.40625 C 2.160156 -17.5 2.566406 -17.546875 3.078125 -17.546875 C 3.585938 -17.546875 3.992188 -17.5 4.296875 -17.40625 C 4.597656 -17.3125 4.804688 -17.144531 4.921875 -16.90625 C 5.117188 -16.539062 5.21875 -16.035156 5.21875 -15.390625 L 5.21875 -8.21875 C 5.21875 -7.25 5.453125 -6.328125 5.921875 -5.453125 C 6.160156 -5.003906 6.519531 -4.644531 7 -4.375 C 7.476562 -4.101562 8.046875 -3.96875 8.703125 -3.96875 C 9.867188 -3.96875 10.738281 -4.394531 11.3125 -5.25 C 11.882812 -6.113281 12.171875 -7.113281 12.171875 -8.25 L 12.171875 -15.5625 C 12.171875 -16.1875 12.25 -16.625 12.40625 -16.875 Z M 12.40625 -16.875 "/></g></g></g><g fill="#ededed" fill-opacity="1"><g transform="translate(120.921129, 152.9077)"><g><path d="M 11.90625 -4.59375 L 12.328125 -4.90625 C 12.867188 -5.21875 13.253906 -5.375 13.484375 -5.375 C 13.972656 -5.375 14.503906 -4.929688 15.078125 -4.046875 C 15.429688 -3.484375 15.609375 -3.035156 15.609375 -2.703125 C 15.609375 -2.367188 15.5 -2.085938 15.28125 -1.859375 C 15.070312 -1.640625 14.820312 -1.441406 14.53125 -1.265625 C 14.25 -1.085938 13.972656 -0.921875 13.703125 -0.765625 C 13.441406 -0.609375 12.90625 -0.398438 12.09375 -0.140625 C 11.28125 0.109375 10.492188 0.234375 9.734375 0.234375 C 8.984375 0.234375 8.21875 0.132812 7.4375 -0.0625 C 6.664062 -0.257812 5.867188 -0.59375 5.046875 -1.0625 C 4.234375 -1.53125 3.5 -2.101562 2.84375 -2.78125 C 2.1875 -3.457031 1.644531 -4.328125 1.21875 -5.390625 C 0.800781 -6.453125 0.59375 -7.601562 0.59375 -8.84375 C 0.59375 -10.082031 0.800781 -11.207031 1.21875 -12.21875 C 1.632812 -13.238281 2.164062 -14.078125 2.8125 -14.734375 C 3.457031 -15.398438 4.191406 -15.957031 5.015625 -16.40625 C 6.578125 -17.257812 8.148438 -17.6875 9.734375 -17.6875 C 10.484375 -17.6875 11.242188 -17.570312 12.015625 -17.34375 C 12.785156 -17.113281 13.367188 -16.878906 13.765625 -16.640625 L 14.34375 -16.296875 C 14.632812 -16.128906 14.859375 -15.988281 15.015625 -15.875 C 15.429688 -15.539062 15.640625 -15.160156 15.640625 -14.734375 C 15.640625 -14.316406 15.46875 -13.875 15.125 -13.40625 C 14.507812 -12.550781 13.953125 -12.125 13.453125 -12.125 C 13.171875 -12.125 12.765625 -12.296875 12.234375 -12.640625 C 11.566406 -13.179688 10.675781 -13.453125 9.5625 -13.453125 C 8.53125 -13.453125 7.507812 -13.097656 6.5 -12.390625 C 6.019531 -12.035156 5.617188 -11.535156 5.296875 -10.890625 C 4.984375 -10.253906 4.828125 -9.535156 4.828125 -8.734375 C 4.828125 -7.929688 4.984375 -7.210938 5.296875 -6.578125 C 5.617188 -5.941406 6.03125 -5.4375 6.53125 -5.0625 C 7.5 -4.363281 8.507812 -4.015625 9.5625 -4.015625 C 10.050781 -4.015625 10.515625 -4.078125 10.953125 -4.203125 C 11.398438 -4.335938 11.71875 -4.46875 11.90625 -4.59375 Z M 11.90625 -4.59375 "/></g></g></g><g fill="#ededed" fill-opacity="1"><g transform="translate(137.155433, 152.9077)"><g><path d="M 2.109375 -17.546875 L 15.390625 -17.546875 C 15.898438 -17.546875 16.273438 -17.484375 16.515625 -17.359375 C 16.753906 -17.242188 16.910156 -17.054688 16.984375 -16.796875 C 17.066406 -16.546875 17.109375 -16.210938 17.109375 -15.796875 C 17.109375 -15.390625 17.066406 -15.0625 16.984375 -14.8125 C 16.910156 -14.5625 16.78125 -14.390625 16.59375 -14.296875 C 16.300781 -14.148438 15.894531 -14.078125 15.375 -14.078125 L 10.8125 -14.078125 L 10.8125 -2.0625 C 10.8125 -1.6875 10.796875 -1.410156 10.765625 -1.234375 C 10.742188 -1.066406 10.671875 -0.863281 10.546875 -0.625 C 10.429688 -0.394531 10.222656 -0.234375 9.921875 -0.140625 C 9.617188 -0.046875 9.21875 0 8.71875 0 C 8.226562 0 7.832031 -0.046875 7.53125 -0.140625 C 7.238281 -0.234375 7.03125 -0.394531 6.90625 -0.625 C 6.789062 -0.863281 6.722656 -1.070312 6.703125 -1.25 C 6.679688 -1.4375 6.671875 -1.710938 6.671875 -2.078125 L 6.671875 -14.078125 L 2.078125 -14.078125 C 1.566406 -14.078125 1.191406 -14.132812 0.953125 -14.25 C 0.710938 -14.375 0.550781 -14.5625 0.46875 -14.8125 C 0.394531 -15.070312 0.359375 -15.410156 0.359375 -15.828125 C 0.359375 -16.242188 0.394531 -16.570312 0.46875 -16.8125 C 0.550781 -17.0625 0.691406 -17.234375 0.890625 -17.328125 C 1.171875 -17.472656 1.578125 -17.546875 2.109375 -17.546875 Z M 2.109375 -17.546875 "/></g></g></g><g fill="#ededed" fill-opacity="1"><g transform="translate(154.63301, 152.9077)"><g><path d="M 9.1875 -17.734375 C 11.539062 -17.734375 13.582031 -16.878906 15.3125 -15.171875 C 17.050781 -13.472656 17.921875 -11.359375 17.921875 -8.828125 C 17.921875 -6.304688 17.09375 -4.15625 15.4375 -2.375 C 13.78125 -0.601562 11.738281 0.28125 9.3125 0.28125 C 6.894531 0.28125 4.835938 -0.59375 3.140625 -2.34375 C 1.441406 -4.09375 0.59375 -6.179688 0.59375 -8.609375 C 0.59375 -9.929688 0.832031 -11.171875 1.3125 -12.328125 C 1.789062 -13.484375 2.425781 -14.453125 3.21875 -15.234375 C 4.019531 -16.015625 4.9375 -16.625 5.96875 -17.0625 C 7.007812 -17.507812 8.082031 -17.734375 9.1875 -17.734375 Z M 4.828125 -8.71875 C 4.828125 -7.300781 5.285156 -6.148438 6.203125 -5.265625 C 7.117188 -4.378906 8.140625 -3.9375 9.265625 -3.9375 C 10.398438 -3.9375 11.421875 -4.367188 12.328125 -5.234375 C 13.242188 -6.097656 13.703125 -7.253906 13.703125 -8.703125 C 13.703125 -10.148438 13.242188 -11.3125 12.328125 -12.1875 C 11.410156 -13.0625 10.382812 -13.5 9.25 -13.5 C 8.113281 -13.5 7.09375 -13.054688 6.1875 -12.171875 C 5.28125 -11.296875 4.828125 -10.144531 4.828125 -8.71875 Z M 4.828125 -8.71875 "/></g></g></g><g fill="#ededed" fill-opacity="1"><g transform="translate(173.162591, 152.9077)"><g><path d="M 1.21875 -2.46875 C 0.800781 -2.976562 0.59375 -3.4375 0.59375 -3.84375 C 0.59375 -4.25 0.9375 -4.785156 1.625 -5.453125 C 2.019531 -5.835938 2.441406 -6.03125 2.890625 -6.03125 C 3.335938 -6.03125 3.957031 -5.628906 4.75 -4.828125 C 4.976562 -4.554688 5.296875 -4.296875 5.703125 -4.046875 C 6.117188 -3.804688 6.503906 -3.6875 6.859375 -3.6875 C 8.335938 -3.6875 9.078125 -4.289062 9.078125 -5.5 C 9.078125 -5.863281 8.875 -6.171875 8.46875 -6.421875 C 8.0625 -6.671875 7.554688 -6.847656 6.953125 -6.953125 C 6.347656 -7.066406 5.691406 -7.242188 4.984375 -7.484375 C 4.285156 -7.734375 3.632812 -8.023438 3.03125 -8.359375 C 2.425781 -8.703125 1.921875 -9.234375 1.515625 -9.953125 C 1.109375 -10.679688 0.90625 -11.554688 0.90625 -12.578125 C 0.90625 -13.972656 1.425781 -15.191406 2.46875 -16.234375 C 3.519531 -17.285156 4.941406 -17.8125 6.734375 -17.8125 C 7.691406 -17.8125 8.566406 -17.6875 9.359375 -17.4375 C 10.148438 -17.1875 10.695312 -16.9375 11 -16.6875 L 11.59375 -16.234375 C 12.082031 -15.765625 12.328125 -15.367188 12.328125 -15.046875 C 12.328125 -14.734375 12.140625 -14.300781 11.765625 -13.75 C 11.222656 -12.945312 10.664062 -12.546875 10.09375 -12.546875 C 9.757812 -12.546875 9.34375 -12.707031 8.84375 -13.03125 C 8.800781 -13.0625 8.707031 -13.140625 8.5625 -13.265625 C 8.425781 -13.390625 8.304688 -13.492188 8.203125 -13.578125 C 7.867188 -13.785156 7.441406 -13.890625 6.921875 -13.890625 C 6.398438 -13.890625 5.96875 -13.765625 5.625 -13.515625 C 5.28125 -13.265625 5.109375 -12.921875 5.109375 -12.484375 C 5.109375 -12.046875 5.3125 -11.691406 5.71875 -11.421875 C 6.125 -11.148438 6.628906 -10.96875 7.234375 -10.875 C 7.847656 -10.78125 8.507812 -10.632812 9.21875 -10.4375 C 9.9375 -10.238281 10.597656 -9.992188 11.203125 -9.703125 C 11.816406 -9.421875 12.328125 -8.921875 12.734375 -8.203125 C 13.140625 -7.492188 13.34375 -6.625 13.34375 -5.59375 C 13.34375 -4.5625 13.132812 -3.648438 12.71875 -2.859375 C 12.300781 -2.066406 11.757812 -1.457031 11.09375 -1.03125 C 9.800781 -0.1875 8.421875 0.234375 6.953125 0.234375 C 6.203125 0.234375 5.492188 0.144531 4.828125 -0.03125 C 4.160156 -0.21875 3.617188 -0.445312 3.203125 -0.71875 C 2.359375 -1.226562 1.769531 -1.722656 1.4375 -2.203125 Z M 1.21875 -2.46875 "/></g></g></g></svg>