<svg xmlns="http://www.w3.org/2000/svg" xmlns:xlink="http://www.w3.org/1999/xlink" width="339" zoomAndPan="magnify" viewBox="0 0 254.25 195.000001" height="260" preserveAspectRatio="xMidYMid meet" version="1.0"><defs><g/><clipPath id="1b802a5697"><path d="M 90.585938 44 L 162.964844 44 L 162.964844 104 L 90.585938 104 Z M 90.585938 44 " clip-rule="nonzero"/></clipPath></defs><path fill="#ededed" d="M 146.75 63.789062 C 146.539062 63.476562 146.269531 63.230469 145.9375 63.050781 C 145.601562 62.871094 145.246094 62.78125 144.867188 62.78125 L 142.605469 62.78125 C 142.308594 62.78125 142.019531 62.839844 141.742188 62.953125 C 141.464844 63.070312 141.21875 63.234375 141.007812 63.445312 C 140.796875 63.65625 140.632812 63.902344 140.515625 64.179688 C 140.402344 64.457031 140.34375 64.746094 140.34375 65.042969 L 140.34375 78.617188 C 140.34375 78.914062 140.402344 79.203125 140.515625 79.480469 C 140.632812 79.757812 140.796875 80.003906 141.007812 80.214844 C 141.21875 80.425781 141.464844 80.589844 141.742188 80.707031 C 142.019531 80.820312 142.308594 80.878906 142.605469 80.878906 L 151.65625 80.878906 C 151.953125 80.878906 152.242188 80.820312 152.519531 80.707031 C 152.796875 80.589844 153.042969 80.425781 153.253906 80.214844 C 153.464844 80.003906 153.628906 79.757812 153.742188 79.480469 C 153.859375 79.203125 153.917969 78.914062 153.917969 78.617188 L 153.917969 75.222656 C 153.917969 74.777344 153.78125 74.339844 153.535156 73.96875 Z M 151.65625 78.617188 L 142.605469 78.617188 L 142.605469 65.042969 L 144.867188 65.042969 L 151.65625 75.222656 Z M 151.65625 78.617188 " fill-opacity="1" fill-rule="nonzero"/><g clip-path="url(#1b802a5697)"><path fill="#ededed" d="M 161.824219 72.589844 L 152.777344 59.019531 C 152.148438 58.074219 151.332031 57.335938 150.332031 56.800781 C 149.332031 56.261719 148.265625 55.996094 147.128906 55.996094 L 138.082031 55.996094 L 138.082031 51.472656 C 138.082031 47.734375 135.039062 44.6875 131.296875 44.6875 L 97.371094 44.6875 C 93.628906 44.6875 90.585938 47.734375 90.585938 51.472656 L 90.585938 76.355469 C 90.585938 80.09375 93.628906 83.140625 97.371094 83.140625 L 97.371094 89.925781 C 97.371094 93.664062 100.414062 96.710938 104.15625 96.710938 L 106.738281 96.710938 C 107.75 100.601562 111.261719 103.496094 115.46875 103.496094 C 119.667969 103.496094 123.179688 100.601562 124.191406 96.710938 L 136.136719 96.710938 C 137.148438 100.601562 140.660156 103.496094 144.867188 103.496094 C 149.066406 103.496094 152.578125 100.601562 153.589844 96.710938 L 156.179688 96.710938 C 159.917969 96.710938 162.964844 93.664062 162.964844 89.925781 L 162.964844 76.355469 C 162.964844 75.011719 162.570312 73.707031 161.824219 72.589844 Z M 97.371094 78.617188 C 97.070312 78.617188 96.78125 78.558594 96.503906 78.445312 C 96.226562 78.328125 95.984375 78.164062 95.769531 77.953125 C 95.558594 77.742188 95.394531 77.496094 95.28125 77.21875 C 95.164062 76.941406 95.109375 76.652344 95.109375 76.355469 L 95.109375 51.472656 C 95.109375 51.171875 95.164062 50.886719 95.28125 50.609375 C 95.394531 50.332031 95.558594 50.085938 95.769531 49.875 C 95.984375 49.664062 96.226562 49.5 96.503906 49.382812 C 96.78125 49.269531 97.070312 49.210938 97.371094 49.210938 L 131.296875 49.210938 C 131.597656 49.210938 131.886719 49.269531 132.164062 49.382812 C 132.441406 49.5 132.683594 49.664062 132.898438 49.875 C 133.109375 50.085938 133.273438 50.332031 133.386719 50.609375 C 133.503906 50.886719 133.558594 51.171875 133.558594 51.472656 L 133.558594 76.355469 C 133.558594 76.652344 133.503906 76.941406 133.386719 77.21875 C 133.273438 77.496094 133.109375 77.742188 132.898438 77.953125 C 132.683594 78.164062 132.441406 78.328125 132.164062 78.445312 C 131.886719 78.558594 131.597656 78.617188 131.296875 78.617188 Z M 115.46875 98.972656 C 115.171875 98.972656 114.875 98.941406 114.585938 98.886719 C 114.292969 98.828125 114.011719 98.742188 113.734375 98.628906 C 113.460938 98.515625 113.199219 98.375 112.953125 98.210938 C 112.707031 98.042969 112.480469 97.855469 112.269531 97.648438 C 112.058594 97.4375 111.871094 97.207031 111.707031 96.960938 C 111.539062 96.714844 111.402344 96.453125 111.289062 96.179688 C 111.175781 95.90625 111.089844 95.621094 111.03125 95.332031 C 110.972656 95.039062 110.945312 94.746094 110.945312 94.449219 C 110.945312 94.152344 110.972656 93.855469 111.03125 93.566406 C 111.089844 93.273438 111.175781 92.992188 111.289062 92.71875 C 111.402344 92.441406 111.539062 92.183594 111.707031 91.933594 C 111.871094 91.6875 112.058594 91.460938 112.269531 91.25 C 112.480469 91.039062 112.707031 90.851562 112.953125 90.6875 C 113.199219 90.523438 113.460938 90.382812 113.734375 90.269531 C 114.011719 90.15625 114.292969 90.070312 114.585938 90.011719 C 114.875 89.953125 115.171875 89.925781 115.46875 89.925781 C 115.765625 89.925781 116.058594 89.953125 116.351562 90.011719 C 116.640625 90.070312 116.925781 90.15625 117.199219 90.269531 C 117.472656 90.382812 117.734375 90.523438 117.980469 90.6875 C 118.226562 90.851562 118.457031 91.039062 118.664062 91.25 C 118.875 91.460938 119.0625 91.6875 119.230469 91.933594 C 119.394531 92.183594 119.53125 92.441406 119.648438 92.71875 C 119.761719 92.992188 119.847656 93.273438 119.902344 93.566406 C 119.960938 93.855469 119.992188 94.152344 119.992188 94.449219 C 119.992188 94.746094 119.960938 95.039062 119.902344 95.332031 C 119.847656 95.621094 119.761719 95.90625 119.648438 96.179688 C 119.53125 96.453125 119.394531 96.714844 119.230469 96.960938 C 119.0625 97.207031 118.875 97.4375 118.664062 97.648438 C 118.457031 97.855469 118.226562 98.042969 117.980469 98.210938 C 117.734375 98.375 117.472656 98.515625 117.199219 98.628906 C 116.925781 98.742188 116.640625 98.828125 116.351562 98.886719 C 116.058594 98.941406 115.765625 98.972656 115.46875 98.972656 Z M 144.867188 98.972656 C 144.570312 98.972656 144.277344 98.941406 143.988281 98.886719 C 143.695312 98.828125 143.414062 98.742188 143.136719 98.628906 C 142.863281 98.515625 142.601562 98.375 142.355469 98.210938 C 142.109375 98.042969 141.878906 97.855469 141.671875 97.648438 C 141.460938 97.4375 141.273438 97.207031 141.109375 96.960938 C 140.941406 96.714844 140.804688 96.453125 140.691406 96.179688 C 140.574219 95.90625 140.488281 95.621094 140.433594 95.332031 C 140.375 95.039062 140.34375 94.746094 140.34375 94.449219 C 140.34375 94.152344 140.375 93.855469 140.433594 93.566406 C 140.488281 93.273438 140.574219 92.992188 140.691406 92.71875 C 140.804688 92.441406 140.941406 92.183594 141.109375 91.933594 C 141.273438 91.6875 141.460938 91.460938 141.671875 91.25 C 141.878906 91.039062 142.109375 90.851562 142.355469 90.6875 C 142.601562 90.523438 142.863281 90.382812 143.136719 90.269531 C 143.414062 90.15625 143.695312 90.070312 143.988281 90.011719 C 144.277344 89.953125 144.570312 89.925781 144.867188 89.925781 C 145.164062 89.925781 145.460938 89.953125 145.75 90.011719 C 146.042969 90.070312 146.324219 90.15625 146.601562 90.269531 C 146.875 90.382812 147.136719 90.523438 147.382812 90.6875 C 147.628906 90.851562 147.859375 91.039062 148.066406 91.25 C 148.277344 91.460938 148.464844 91.6875 148.628906 91.933594 C 148.796875 92.183594 148.933594 92.441406 149.046875 92.71875 C 149.160156 92.992188 149.246094 93.273438 149.304688 93.566406 C 149.363281 93.855469 149.394531 94.152344 149.394531 94.449219 C 149.394531 94.746094 149.363281 95.039062 149.304688 95.332031 C 149.246094 95.621094 149.160156 95.90625 149.046875 96.179688 C 148.933594 96.453125 148.796875 96.714844 148.628906 96.960938 C 148.464844 97.207031 148.277344 97.4375 148.066406 97.648438 C 147.859375 97.855469 147.628906 98.042969 147.382812 98.210938 C 147.136719 98.375 146.875 98.515625 146.601562 98.628906 C 146.324219 98.742188 146.042969 98.828125 145.75 98.886719 C 145.460938 98.941406 145.164062 98.972656 144.867188 98.972656 Z M 158.441406 89.925781 C 158.441406 90.226562 158.382812 90.511719 158.269531 90.789062 C 158.152344 91.066406 157.988281 91.3125 157.777344 91.523438 C 157.566406 91.738281 157.320312 91.898438 157.042969 92.015625 C 156.765625 92.128906 156.476562 92.1875 156.179688 92.1875 L 153.59375 92.1875 C 152.582031 88.292969 149.070312 85.402344 144.867188 85.402344 C 140.664062 85.402344 137.152344 88.292969 136.140625 92.1875 L 124.195312 92.1875 C 123.183594 88.292969 119.667969 85.402344 115.46875 85.402344 C 111.265625 85.402344 107.753906 88.292969 106.742188 92.1875 L 104.15625 92.1875 C 103.855469 92.1875 103.566406 92.128906 103.289062 92.015625 C 103.011719 91.898438 102.769531 91.738281 102.554688 91.523438 C 102.34375 91.3125 102.179688 91.066406 102.066406 90.789062 C 101.953125 90.511719 101.894531 90.226562 101.894531 89.925781 L 101.894531 83.140625 L 131.296875 83.140625 C 135.039062 83.140625 138.082031 80.09375 138.082031 76.355469 L 138.082031 60.519531 L 147.128906 60.519531 C 147.886719 60.519531 148.59375 60.898438 149.011719 61.527344 L 158.058594 75.097656 C 158.304688 75.46875 158.441406 75.910156 158.441406 76.355469 Z M 158.441406 89.925781 " fill-opacity="1" fill-rule="nonzero"/></g><g fill="#ededed" fill-opacity="1"><g transform="translate(38.026085, 150.782701)"><g><path d="M 13.859375 -13.96875 C 14.273438 -13.125 14.484375 -12.179688 14.484375 -11.140625 C 14.484375 -10.109375 14.273438 -9.175781 13.859375 -8.34375 C 13.453125 -7.507812 12.921875 -6.84375 12.265625 -6.34375 C 10.953125 -5.332031 9.585938 -4.828125 8.171875 -4.828125 L 5.1875 -4.828125 L 5.1875 -2.125 C 5.1875 -1.757812 5.171875 -1.484375 5.140625 -1.296875 C 5.117188 -1.117188 5.046875 -0.910156 4.921875 -0.671875 C 4.691406 -0.242188 4.070312 -0.03125 3.0625 -0.03125 C 1.945312 -0.03125 1.289062 -0.320312 1.09375 -0.90625 C 1 -1.175781 0.953125 -1.59375 0.953125 -2.15625 L 0.953125 -15.40625 C 0.953125 -15.769531 0.960938 -16.039062 0.984375 -16.21875 C 1.015625 -16.40625 1.09375 -16.617188 1.21875 -16.859375 C 1.4375 -17.285156 2.054688 -17.5 3.078125 -17.5 L 8.1875 -17.5 C 9.59375 -17.5 10.953125 -16.988281 12.265625 -15.96875 C 12.921875 -15.476562 13.453125 -14.8125 13.859375 -13.96875 Z M 8.1875 -9.046875 C 8.664062 -9.046875 9.132812 -9.21875 9.59375 -9.5625 C 10.0625 -9.914062 10.296875 -10.441406 10.296875 -11.140625 C 10.296875 -11.847656 10.0625 -12.378906 9.59375 -12.734375 C 9.132812 -13.097656 8.660156 -13.28125 8.171875 -13.28125 L 5.1875 -13.28125 L 5.1875 -9.046875 Z M 8.1875 -9.046875 "/></g></g></g><g fill="#ededed" fill-opacity="1"><g transform="translate(53.116731, 150.782701)"><g><path d="M 14.34375 -2.953125 C 14.582031 -2.378906 14.703125 -1.96875 14.703125 -1.71875 C 14.703125 -1.113281 14.210938 -0.601562 13.234375 -0.1875 C 12.722656 0.03125 12.3125 0.140625 12 0.140625 C 11.6875 0.140625 11.429688 0.0664062 11.234375 -0.078125 C 11.035156 -0.234375 10.890625 -0.390625 10.796875 -0.546875 C 10.628906 -0.847656 10.003906 -2.289062 8.921875 -4.875 L 8.1875 -4.828125 L 5.1875 -4.828125 L 5.1875 -2.125 C 5.1875 -1.757812 5.171875 -1.484375 5.140625 -1.296875 C 5.117188 -1.117188 5.046875 -0.910156 4.921875 -0.671875 C 4.691406 -0.242188 4.070312 -0.03125 3.0625 -0.03125 C 1.945312 -0.03125 1.289062 -0.320312 1.09375 -0.90625 C 1 -1.175781 0.953125 -1.59375 0.953125 -2.15625 L 0.953125 -15.40625 C 0.953125 -15.769531 0.960938 -16.039062 0.984375 -16.21875 C 1.015625 -16.40625 1.09375 -16.617188 1.21875 -16.859375 C 1.4375 -17.285156 2.054688 -17.5 3.078125 -17.5 L 8.234375 -17.5 C 9.640625 -17.5 11 -16.988281 12.3125 -15.96875 C 12.957031 -15.476562 13.484375 -14.8125 13.890625 -13.96875 C 14.304688 -13.125 14.515625 -12.1875 14.515625 -11.15625 C 14.515625 -9.351562 13.914062 -7.867188 12.71875 -6.703125 C 13.070312 -5.859375 13.613281 -4.609375 14.34375 -2.953125 Z M 5.1875 -9.046875 L 8.234375 -9.046875 C 8.691406 -9.046875 9.148438 -9.21875 9.609375 -9.5625 C 10.078125 -9.914062 10.3125 -10.441406 10.3125 -11.140625 C 10.3125 -11.847656 10.078125 -12.378906 9.609375 -12.734375 C 9.148438 -13.097656 8.675781 -13.28125 8.1875 -13.28125 L 5.1875 -13.28125 Z M 5.1875 -9.046875 "/></g></g></g><g fill="#ededed" fill-opacity="1"><g transform="translate(68.1835, 150.782701)"><g><path d="M 9.171875 -17.71875 C 11.523438 -17.71875 13.566406 -16.863281 15.296875 -15.15625 C 17.035156 -13.457031 17.90625 -11.34375 17.90625 -8.8125 C 17.90625 -6.289062 17.078125 -4.144531 15.421875 -2.375 C 13.765625 -0.601562 11.726562 0.28125 9.3125 0.28125 C 6.894531 0.28125 4.835938 -0.59375 3.140625 -2.34375 C 1.441406 -4.09375 0.59375 -6.175781 0.59375 -8.59375 C 0.59375 -9.914062 0.832031 -11.148438 1.3125 -12.296875 C 1.789062 -13.453125 2.425781 -14.421875 3.21875 -15.203125 C 4.019531 -15.984375 4.9375 -16.597656 5.96875 -17.046875 C 7 -17.492188 8.066406 -17.71875 9.171875 -17.71875 Z M 4.828125 -8.71875 C 4.828125 -7.300781 5.28125 -6.148438 6.1875 -5.265625 C 7.101562 -4.378906 8.125 -3.9375 9.25 -3.9375 C 10.382812 -3.9375 11.40625 -4.363281 12.3125 -5.21875 C 13.226562 -6.082031 13.6875 -7.238281 13.6875 -8.6875 C 13.6875 -10.132812 13.226562 -11.296875 12.3125 -12.171875 C 11.394531 -13.046875 10.367188 -13.484375 9.234375 -13.484375 C 8.109375 -13.484375 7.09375 -13.039062 6.1875 -12.15625 C 5.28125 -11.28125 4.828125 -10.132812 4.828125 -8.71875 Z M 4.828125 -8.71875 "/></g></g></g><g fill="#ededed" fill-opacity="1"><g transform="translate(86.688638, 150.782701)"><g><path d="M 16.921875 -17.234375 C 17.867188 -16.773438 18.34375 -16.265625 18.34375 -15.703125 C 18.34375 -15.453125 18.222656 -15.070312 17.984375 -14.5625 L 11.390625 -1.1875 C 11.210938 -0.84375 10.941406 -0.5625 10.578125 -0.34375 C 10.222656 -0.132812 9.859375 -0.03125 9.484375 -0.03125 L 9.234375 -0.03125 C 8.835938 -0.03125 8.457031 -0.132812 8.09375 -0.34375 C 7.738281 -0.5625 7.476562 -0.84375 7.3125 -1.1875 L 0.71875 -14.5625 C 0.476562 -15.070312 0.359375 -15.453125 0.359375 -15.703125 C 0.359375 -16.265625 0.828125 -16.773438 1.765625 -17.234375 C 2.285156 -17.503906 2.6875 -17.640625 2.96875 -17.640625 C 3.25 -17.640625 3.457031 -17.609375 3.59375 -17.546875 C 3.738281 -17.484375 3.878906 -17.375 4.015625 -17.21875 C 4.148438 -17.019531 4.273438 -16.804688 4.390625 -16.578125 C 4.515625 -16.347656 4.820312 -15.6875 5.3125 -14.59375 C 5.8125 -13.507812 6.34375 -12.351562 6.90625 -11.125 C 7.476562 -9.894531 8.015625 -8.734375 8.515625 -7.640625 C 9.015625 -6.554688 9.296875 -5.953125 9.359375 -5.828125 L 14.140625 -16.28125 C 14.265625 -16.582031 14.375 -16.820312 14.46875 -17 C 14.75 -17.425781 15.097656 -17.640625 15.515625 -17.640625 C 15.929688 -17.640625 16.398438 -17.503906 16.921875 -17.234375 Z M 16.921875 -17.234375 "/></g></g></g><g fill="#ededed" fill-opacity="1"><g transform="translate(105.384794, 150.782701)"><g><path d="M 5.1875 -4.21875 L 12.53125 -4.21875 C 12.894531 -4.21875 13.164062 -4.207031 13.34375 -4.1875 C 13.53125 -4.164062 13.742188 -4.09375 13.984375 -3.96875 C 14.421875 -3.738281 14.640625 -3.113281 14.640625 -2.09375 C 14.640625 -0.988281 14.34375 -0.335938 13.75 -0.140625 C 13.476562 -0.046875 13.066406 0 12.515625 0 L 3.0625 0 C 1.945312 0 1.289062 -0.300781 1.09375 -0.90625 C 1 -1.164062 0.953125 -1.570312 0.953125 -2.125 L 0.953125 -15.40625 C 0.953125 -16.207031 1.101562 -16.753906 1.40625 -17.046875 C 1.707031 -17.347656 2.28125 -17.5 3.125 -17.5 L 12.53125 -17.5 C 12.894531 -17.5 13.164062 -17.484375 13.34375 -17.453125 C 13.53125 -17.429688 13.742188 -17.359375 13.984375 -17.234375 C 14.421875 -17.015625 14.640625 -16.394531 14.640625 -15.375 C 14.640625 -14.257812 14.34375 -13.609375 13.75 -13.421875 C 13.476562 -13.328125 13.066406 -13.28125 12.515625 -13.28125 L 5.1875 -13.28125 L 5.1875 -10.859375 L 9.90625 -10.859375 C 10.269531 -10.859375 10.539062 -10.847656 10.71875 -10.828125 C 10.90625 -10.804688 11.117188 -10.726562 11.359375 -10.59375 C 11.796875 -10.375 12.015625 -9.753906 12.015625 -8.734375 C 12.015625 -7.617188 11.710938 -6.96875 11.109375 -6.78125 C 10.835938 -6.6875 10.421875 -6.640625 9.859375 -6.640625 L 5.1875 -6.640625 Z M 5.1875 -4.21875 "/></g></g></g><g fill="#ededed" fill-opacity="1"><g transform="translate(120.618705, 150.782701)"><g><path d="M 5.1875 -4.21875 L 12.53125 -4.21875 C 12.894531 -4.21875 13.164062 -4.207031 13.34375 -4.1875 C 13.53125 -4.164062 13.742188 -4.09375 13.984375 -3.96875 C 14.421875 -3.738281 14.640625 -3.113281 14.640625 -2.09375 C 14.640625 -0.988281 14.34375 -0.335938 13.75 -0.140625 C 13.476562 -0.046875 13.066406 0 12.515625 0 L 3.0625 0 C 1.945312 0 1.289062 -0.300781 1.09375 -0.90625 C 1 -1.164062 0.953125 -1.570312 0.953125 -2.125 L 0.953125 -15.40625 C 0.953125 -16.207031 1.101562 -16.753906 1.40625 -17.046875 C 1.707031 -17.347656 2.28125 -17.5 3.125 -17.5 L 12.53125 -17.5 C 12.894531 -17.5 13.164062 -17.484375 13.34375 -17.453125 C 13.53125 -17.429688 13.742188 -17.359375 13.984375 -17.234375 C 14.421875 -17.015625 14.640625 -16.394531 14.640625 -15.375 C 14.640625 -14.257812 14.34375 -13.609375 13.75 -13.421875 C 13.476562 -13.328125 13.066406 -13.28125 12.515625 -13.28125 L 5.1875 -13.28125 L 5.1875 -10.859375 L 9.90625 -10.859375 C 10.269531 -10.859375 10.539062 -10.847656 10.71875 -10.828125 C 10.90625 -10.804688 11.117188 -10.726562 11.359375 -10.59375 C 11.796875 -10.375 12.015625 -9.753906 12.015625 -8.734375 C 12.015625 -7.617188 11.710938 -6.96875 11.109375 -6.78125 C 10.835938 -6.6875 10.421875 -6.640625 9.859375 -6.640625 L 5.1875 -6.640625 Z M 5.1875 -4.21875 "/></g></g></g><g fill="#ededed" fill-opacity="1"><g transform="translate(135.852617, 150.782701)"><g><path d="M 3.078125 -17.53125 L 7.5 -17.5 C 9.800781 -17.5 11.828125 -16.664062 13.578125 -15 C 15.335938 -13.34375 16.21875 -11.300781 16.21875 -8.875 C 16.21875 -6.445312 15.359375 -4.363281 13.640625 -2.625 C 11.929688 -0.894531 9.859375 -0.03125 7.421875 -0.03125 L 3.0625 -0.03125 C 2.082031 -0.03125 1.472656 -0.226562 1.234375 -0.625 C 1.046875 -0.957031 0.953125 -1.46875 0.953125 -2.15625 L 0.953125 -15.421875 C 0.953125 -15.804688 0.960938 -16.082031 0.984375 -16.25 C 1.015625 -16.425781 1.09375 -16.632812 1.21875 -16.875 C 1.4375 -17.3125 2.054688 -17.53125 3.078125 -17.53125 Z M 7.5 -4.25 C 8.644531 -4.25 9.675781 -4.671875 10.59375 -5.515625 C 11.519531 -6.367188 11.984375 -7.441406 11.984375 -8.734375 C 11.984375 -10.023438 11.53125 -11.101562 10.625 -11.96875 C 9.726562 -12.84375 8.675781 -13.28125 7.46875 -13.28125 L 5.1875 -13.28125 L 5.1875 -4.25 Z M 7.5 -4.25 "/></g></g></g><g fill="#ededed" fill-opacity="1"><g transform="translate(152.662446, 150.782701)"><g><path d="M 9.171875 -17.71875 C 11.523438 -17.71875 13.566406 -16.863281 15.296875 -15.15625 C 17.035156 -13.457031 17.90625 -11.34375 17.90625 -8.8125 C 17.90625 -6.289062 17.078125 -4.144531 15.421875 -2.375 C 13.765625 -0.601562 11.726562 0.28125 9.3125 0.28125 C 6.894531 0.28125 4.835938 -0.59375 3.140625 -2.34375 C 1.441406 -4.09375 0.59375 -6.175781 0.59375 -8.59375 C 0.59375 -9.914062 0.832031 -11.148438 1.3125 -12.296875 C 1.789062 -13.453125 2.425781 -14.421875 3.21875 -15.203125 C 4.019531 -15.984375 4.9375 -16.597656 5.96875 -17.046875 C 7 -17.492188 8.066406 -17.71875 9.171875 -17.71875 Z M 4.828125 -8.71875 C 4.828125 -7.300781 5.28125 -6.148438 6.1875 -5.265625 C 7.101562 -4.378906 8.125 -3.9375 9.25 -3.9375 C 10.382812 -3.9375 11.40625 -4.363281 12.3125 -5.21875 C 13.226562 -6.082031 13.6875 -7.238281 13.6875 -8.6875 C 13.6875 -10.132812 13.226562 -11.296875 12.3125 -12.171875 C 11.394531 -13.046875 10.367188 -13.484375 9.234375 -13.484375 C 8.109375 -13.484375 7.09375 -13.039062 6.1875 -12.15625 C 5.28125 -11.28125 4.828125 -10.132812 4.828125 -8.71875 Z M 4.828125 -8.71875 "/></g></g></g><g fill="#ededed" fill-opacity="1"><g transform="translate(171.167584, 150.782701)"><g><path d="M 14.34375 -2.953125 C 14.582031 -2.378906 14.703125 -1.96875 14.703125 -1.71875 C 14.703125 -1.113281 14.210938 -0.601562 13.234375 -0.1875 C 12.722656 0.03125 12.3125 0.140625 12 0.140625 C 11.6875 0.140625 11.429688 0.0664062 11.234375 -0.078125 C 11.035156 -0.234375 10.890625 -0.390625 10.796875 -0.546875 C 10.628906 -0.847656 10.003906 -2.289062 8.921875 -4.875 L 8.1875 -4.828125 L 5.1875 -4.828125 L 5.1875 -2.125 C 5.1875 -1.757812 5.171875 -1.484375 5.140625 -1.296875 C 5.117188 -1.117188 5.046875 -0.910156 4.921875 -0.671875 C 4.691406 -0.242188 4.070312 -0.03125 3.0625 -0.03125 C 1.945312 -0.03125 1.289062 -0.320312 1.09375 -0.90625 C 1 -1.175781 0.953125 -1.59375 0.953125 -2.15625 L 0.953125 -15.40625 C 0.953125 -15.769531 0.960938 -16.039062 0.984375 -16.21875 C 1.015625 -16.40625 1.09375 -16.617188 1.21875 -16.859375 C 1.4375 -17.285156 2.054688 -17.5 3.078125 -17.5 L 8.234375 -17.5 C 9.640625 -17.5 11 -16.988281 12.3125 -15.96875 C 12.957031 -15.476562 13.484375 -14.8125 13.890625 -13.96875 C 14.304688 -13.125 14.515625 -12.1875 14.515625 -11.15625 C 14.515625 -9.351562 13.914062 -7.867188 12.71875 -6.703125 C 13.070312 -5.859375 13.613281 -4.609375 14.34375 -2.953125 Z M 5.1875 -9.046875 L 8.234375 -9.046875 C 8.691406 -9.046875 9.148438 -9.21875 9.609375 -9.5625 C 10.078125 -9.914062 10.3125 -10.441406 10.3125 -11.140625 C 10.3125 -11.847656 10.078125 -12.378906 9.609375 -12.734375 C 9.148438 -13.097656 8.675781 -13.28125 8.1875 -13.28125 L 5.1875 -13.28125 Z M 5.1875 -9.046875 "/></g></g></g><g fill="#ededed" fill-opacity="1"><g transform="translate(186.234353, 150.782701)"><g><path d="M 5.1875 -4.21875 L 12.53125 -4.21875 C 12.894531 -4.21875 13.164062 -4.207031 13.34375 -4.1875 C 13.53125 -4.164062 13.742188 -4.09375 13.984375 -3.96875 C 14.421875 -3.738281 14.640625 -3.113281 14.640625 -2.09375 C 14.640625 -0.988281 14.34375 -0.335938 13.75 -0.140625 C 13.476562 -0.046875 13.066406 0 12.515625 0 L 3.0625 0 C 1.945312 0 1.289062 -0.300781 1.09375 -0.90625 C 1 -1.164062 0.953125 -1.570312 0.953125 -2.125 L 0.953125 -15.40625 C 0.953125 -16.207031 1.101562 -16.753906 1.40625 -17.046875 C 1.707031 -17.347656 2.28125 -17.5 3.125 -17.5 L 12.53125 -17.5 C 12.894531 -17.5 13.164062 -17.484375 13.34375 -17.453125 C 13.53125 -17.429688 13.742188 -17.359375 13.984375 -17.234375 C 14.421875 -17.015625 14.640625 -16.394531 14.640625 -15.375 C 14.640625 -14.257812 14.34375 -13.609375 13.75 -13.421875 C 13.476562 -13.328125 13.066406 -13.28125 12.515625 -13.28125 L 5.1875 -13.28125 L 5.1875 -10.859375 L 9.90625 -10.859375 C 10.269531 -10.859375 10.539062 -10.847656 10.71875 -10.828125 C 10.90625 -10.804688 11.117188 -10.726562 11.359375 -10.59375 C 11.796875 -10.375 12.015625 -9.753906 12.015625 -8.734375 C 12.015625 -7.617188 11.710938 -6.96875 11.109375 -6.78125 C 10.835938 -6.6875 10.421875 -6.640625 9.859375 -6.640625 L 5.1875 -6.640625 Z M 5.1875 -4.21875 "/></g></g></g><g fill="#ededed" fill-opacity="1"><g transform="translate(201.468265, 150.782701)"><g><path d="M 1.21875 -2.453125 C 0.800781 -2.960938 0.59375 -3.421875 0.59375 -3.828125 C 0.59375 -4.234375 0.9375 -4.769531 1.625 -5.4375 C 2.019531 -5.820312 2.441406 -6.015625 2.890625 -6.015625 C 3.335938 -6.015625 3.957031 -5.617188 4.75 -4.828125 C 4.96875 -4.554688 5.285156 -4.296875 5.703125 -4.046875 C 6.117188 -3.796875 6.503906 -3.671875 6.859375 -3.671875 C 8.335938 -3.671875 9.078125 -4.273438 9.078125 -5.484375 C 9.078125 -5.859375 8.875 -6.164062 8.46875 -6.40625 C 8.0625 -6.65625 7.554688 -6.832031 6.953125 -6.9375 C 6.347656 -7.050781 5.691406 -7.234375 4.984375 -7.484375 C 4.285156 -7.734375 3.632812 -8.023438 3.03125 -8.359375 C 2.425781 -8.691406 1.921875 -9.21875 1.515625 -9.9375 C 1.109375 -10.664062 0.90625 -11.539062 0.90625 -12.5625 C 0.90625 -13.957031 1.425781 -15.175781 2.46875 -16.21875 C 3.507812 -17.257812 4.929688 -17.78125 6.734375 -17.78125 C 7.691406 -17.78125 8.5625 -17.65625 9.34375 -17.40625 C 10.132812 -17.164062 10.679688 -16.921875 10.984375 -16.671875 L 11.578125 -16.21875 C 12.066406 -15.75 12.3125 -15.351562 12.3125 -15.03125 C 12.3125 -14.71875 12.125 -14.285156 11.75 -13.734375 C 11.207031 -12.929688 10.648438 -12.53125 10.078125 -12.53125 C 9.742188 -12.53125 9.328125 -12.691406 8.828125 -13.015625 C 8.785156 -13.046875 8.695312 -13.125 8.5625 -13.25 C 8.425781 -13.375 8.300781 -13.476562 8.1875 -13.5625 C 7.851562 -13.769531 7.425781 -13.875 6.90625 -13.875 C 6.394531 -13.875 5.96875 -13.75 5.625 -13.5 C 5.28125 -13.25 5.109375 -12.90625 5.109375 -12.46875 C 5.109375 -12.03125 5.3125 -11.675781 5.71875 -11.40625 C 6.125 -11.132812 6.628906 -10.953125 7.234375 -10.859375 C 7.835938 -10.765625 8.5 -10.617188 9.21875 -10.421875 C 9.9375 -10.222656 10.597656 -9.976562 11.203125 -9.6875 C 11.804688 -9.40625 12.3125 -8.910156 12.71875 -8.203125 C 13.125 -7.492188 13.328125 -6.617188 13.328125 -5.578125 C 13.328125 -4.546875 13.117188 -3.632812 12.703125 -2.84375 C 12.285156 -2.0625 11.742188 -1.457031 11.078125 -1.03125 C 9.785156 -0.1875 8.410156 0.234375 6.953125 0.234375 C 6.203125 0.234375 5.488281 0.144531 4.8125 -0.03125 C 4.144531 -0.21875 3.609375 -0.445312 3.203125 -0.71875 C 2.359375 -1.226562 1.769531 -1.722656 1.4375 -2.203125 Z M 1.21875 -2.453125 "/></g></g></g></svg>