<svg xmlns="http://www.w3.org/2000/svg" xmlns:xlink="http://www.w3.org/1999/xlink" width="262" zoomAndPan="magnify" viewBox="0 0 196.5 195.000001" height="260" preserveAspectRatio="xMidYMid meet" version="1.0"><defs><g/></defs><path fill="#ededed" d="M 98.257812 74.582031 C 98.785156 74.582031 99.308594 74.554688 99.828125 74.503906 C 100.351562 74.453125 100.871094 74.375 101.386719 74.273438 C 101.902344 74.171875 102.410156 74.042969 102.914062 73.890625 C 103.414062 73.738281 103.910156 73.5625 104.394531 73.359375 C 104.878906 73.160156 105.355469 72.9375 105.816406 72.6875 C 106.28125 72.441406 106.730469 72.171875 107.167969 71.878906 C 107.605469 71.585938 108.027344 71.273438 108.433594 70.941406 C 108.835938 70.609375 109.226562 70.257812 109.597656 69.886719 C 109.96875 69.511719 110.320312 69.125 110.65625 68.71875 C 110.988281 68.3125 111.300781 67.890625 111.59375 67.453125 C 111.882812 67.019531 112.152344 66.566406 112.402344 66.105469 C 112.648438 65.640625 112.875 65.167969 113.074219 64.683594 C 113.273438 64.195312 113.453125 63.703125 113.605469 63.199219 C 113.757812 62.699219 113.882812 62.1875 113.988281 61.671875 C 114.089844 61.160156 114.167969 60.640625 114.21875 60.117188 C 114.269531 59.59375 114.292969 59.070312 114.292969 58.546875 C 114.292969 58.019531 114.269531 57.496094 114.21875 56.972656 C 114.167969 56.449219 114.089844 55.933594 113.988281 55.417969 C 113.882812 54.902344 113.757812 54.390625 113.605469 53.890625 C 113.453125 53.386719 113.273438 52.894531 113.074219 52.40625 C 112.875 51.921875 112.648438 51.449219 112.402344 50.984375 C 112.152344 50.523438 111.882812 50.074219 111.59375 49.636719 C 111.300781 49.199219 110.988281 48.777344 110.65625 48.371094 C 110.320312 47.964844 109.96875 47.578125 109.597656 47.207031 C 109.226562 46.835938 108.835938 46.480469 108.433594 46.148438 C 108.027344 45.816406 107.605469 45.503906 107.167969 45.210938 C 106.730469 44.917969 106.28125 44.648438 105.816406 44.402344 C 105.355469 44.15625 104.878906 43.929688 104.394531 43.730469 C 103.910156 43.527344 103.414062 43.351562 102.914062 43.199219 C 102.410156 43.046875 101.902344 42.917969 101.386719 42.816406 C 100.871094 42.714844 100.351562 42.636719 99.828125 42.585938 C 99.308594 42.535156 98.785156 42.507812 98.257812 42.507812 C 97.734375 42.507812 97.207031 42.535156 96.6875 42.585938 C 96.164062 42.636719 95.644531 42.714844 95.128906 42.816406 C 94.613281 42.917969 94.105469 43.046875 93.601562 43.199219 C 93.101562 43.351562 92.605469 43.527344 92.121094 43.730469 C 91.636719 43.929688 91.160156 44.15625 90.699219 44.402344 C 90.234375 44.648438 89.785156 44.917969 89.347656 45.210938 C 88.910156 45.503906 88.492188 45.816406 88.085938 46.148438 C 87.679688 46.480469 87.289062 46.835938 86.917969 47.207031 C 86.546875 47.578125 86.195312 47.964844 85.863281 48.371094 C 85.527344 48.777344 85.214844 49.199219 84.925781 49.636719 C 84.632812 50.074219 84.363281 50.523438 84.113281 50.984375 C 83.867188 51.449219 83.644531 51.921875 83.441406 52.40625 C 83.242188 52.894531 83.0625 53.386719 82.910156 53.890625 C 82.757812 54.390625 82.632812 54.902344 82.53125 55.417969 C 82.425781 55.933594 82.351562 56.449219 82.296875 56.972656 C 82.246094 57.496094 82.222656 58.019531 82.222656 58.546875 C 82.222656 59.070312 82.246094 59.59375 82.296875 60.117188 C 82.351562 60.640625 82.425781 61.160156 82.53125 61.671875 C 82.632812 62.1875 82.757812 62.699219 82.910156 63.199219 C 83.0625 63.703125 83.242188 64.195312 83.441406 64.683594 C 83.644531 65.167969 83.867188 65.640625 84.113281 66.105469 C 84.363281 66.566406 84.632812 67.019531 84.925781 67.453125 C 85.214844 67.890625 85.527344 68.3125 85.863281 68.71875 C 86.195312 69.125 86.546875 69.511719 86.917969 69.886719 C 87.289062 70.257812 87.679688 70.609375 88.085938 70.941406 C 88.492188 71.273438 88.910156 71.585938 89.347656 71.878906 C 89.785156 72.171875 90.234375 72.441406 90.699219 72.6875 C 91.160156 72.9375 91.636719 73.160156 92.121094 73.359375 C 92.605469 73.5625 93.101562 73.738281 93.601562 73.890625 C 94.105469 74.042969 94.613281 74.171875 95.128906 74.273438 C 95.644531 74.375 96.164062 74.453125 96.6875 74.503906 C 97.207031 74.554688 97.734375 74.582031 98.257812 74.582031 Z M 98.257812 47.089844 C 99.011719 47.089844 99.753906 47.164062 100.492188 47.308594 C 101.230469 47.457031 101.945312 47.675781 102.640625 47.960938 C 103.335938 48.25 103.996094 48.601562 104.621094 49.019531 C 105.246094 49.4375 105.824219 49.914062 106.359375 50.445312 C 106.890625 50.976562 107.363281 51.554688 107.78125 52.179688 C 108.199219 52.804688 108.554688 53.464844 108.839844 54.160156 C 109.128906 54.855469 109.347656 55.574219 109.492188 56.308594 C 109.640625 57.046875 109.714844 57.792969 109.714844 58.546875 C 109.714844 59.296875 109.640625 60.042969 109.492188 60.78125 C 109.347656 61.515625 109.128906 62.234375 108.839844 62.929688 C 108.554688 63.625 108.199219 64.285156 107.78125 64.910156 C 107.363281 65.535156 106.890625 66.113281 106.359375 66.644531 C 105.824219 67.175781 105.246094 67.652344 104.621094 68.070312 C 103.996094 68.488281 103.335938 68.839844 102.640625 69.128906 C 101.945312 69.414062 101.230469 69.632812 100.492188 69.78125 C 99.753906 69.925781 99.011719 70 98.257812 70 C 97.507812 70 96.761719 69.925781 96.023438 69.78125 C 95.285156 69.632812 94.570312 69.414062 93.875 69.128906 C 93.179688 68.839844 92.519531 68.488281 91.894531 68.070312 C 91.269531 67.652344 90.691406 67.175781 90.160156 66.644531 C 89.625 66.113281 89.152344 65.535156 88.734375 64.910156 C 88.316406 64.285156 87.964844 63.625 87.675781 62.929688 C 87.386719 62.234375 87.171875 61.515625 87.023438 60.78125 C 86.875 60.042969 86.804688 59.296875 86.804688 58.546875 C 86.804688 57.792969 86.875 57.046875 87.023438 56.308594 C 87.171875 55.574219 87.386719 54.855469 87.675781 54.160156 C 87.964844 53.464844 88.316406 52.804688 88.734375 52.179688 C 89.152344 51.554688 89.625 50.976562 90.160156 50.445312 C 90.691406 49.914062 91.269531 49.4375 91.894531 49.019531 C 92.519531 48.601562 93.179688 48.25 93.875 47.960938 C 94.570312 47.675781 95.285156 47.457031 96.023438 47.308594 C 96.761719 47.164062 97.507812 47.089844 98.257812 47.089844 Z M 98.257812 47.089844 " fill-opacity="1" fill-rule="nonzero"/><path fill="#ededed" d="M 100.550781 79.164062 L 95.96875 79.164062 C 95.140625 79.164062 94.320312 79.203125 93.496094 79.285156 C 92.675781 79.367188 91.859375 79.488281 91.050781 79.648438 C 90.242188 79.808594 89.441406 80.007812 88.652344 80.25 C 87.863281 80.488281 87.085938 80.765625 86.324219 81.082031 C 85.5625 81.398438 84.816406 81.75 84.085938 82.140625 C 83.359375 82.527344 82.652344 82.953125 81.964844 83.410156 C 81.28125 83.871094 80.617188 84.359375 79.980469 84.882812 C 79.34375 85.40625 78.730469 85.960938 78.148438 86.546875 C 77.5625 87.128906 77.011719 87.738281 76.488281 88.378906 C 75.964844 89.015625 75.472656 89.675781 75.011719 90.363281 C 74.554688 91.050781 74.132812 91.757812 73.742188 92.484375 C 73.351562 93.214844 73 93.957031 72.683594 94.71875 C 72.367188 95.484375 72.089844 96.257812 71.851562 97.050781 C 71.613281 97.839844 71.410156 98.640625 71.25 99.449219 C 71.089844 100.257812 70.96875 101.074219 70.886719 101.894531 C 70.808594 102.714844 70.765625 103.539062 70.765625 104.363281 C 70.765625 104.667969 70.824219 104.960938 70.941406 105.242188 C 71.058594 105.523438 71.222656 105.769531 71.4375 105.984375 C 71.652344 106.199219 71.898438 106.363281 72.179688 106.480469 C 72.460938 106.597656 72.753906 106.65625 73.058594 106.65625 L 123.457031 106.65625 C 123.761719 106.65625 124.054688 106.597656 124.335938 106.480469 C 124.617188 106.363281 124.863281 106.199219 125.078125 105.984375 C 125.292969 105.769531 125.460938 105.523438 125.574219 105.242188 C 125.691406 104.960938 125.75 104.667969 125.75 104.363281 C 125.75 103.539062 125.710938 102.714844 125.628906 101.894531 C 125.546875 101.074219 125.425781 100.257812 125.265625 99.449219 C 125.105469 98.636719 124.902344 97.839844 124.664062 97.050781 C 124.425781 96.257812 124.148438 95.484375 123.832031 94.71875 C 123.515625 93.957031 123.164062 93.214844 122.773438 92.484375 C 122.386719 91.757812 121.960938 91.050781 121.503906 90.363281 C 121.042969 89.675781 120.554688 89.015625 120.03125 88.378906 C 119.507812 87.738281 118.953125 87.128906 118.367188 86.546875 C 117.785156 85.960938 117.175781 85.40625 116.535156 84.882812 C 115.898438 84.359375 115.234375 83.871094 114.550781 83.410156 C 113.863281 82.953125 113.15625 82.527344 112.429688 82.140625 C 111.699219 81.75 110.957031 81.398438 110.191406 81.082031 C 109.429688 80.765625 108.652344 80.488281 107.863281 80.25 C 107.074219 80.007812 106.273438 79.808594 105.464844 79.648438 C 104.65625 79.488281 103.839844 79.367188 103.019531 79.285156 C 102.199219 79.203125 101.375 79.164062 100.550781 79.164062 Z M 75.484375 102.074219 C 75.625 100.824219 75.878906 99.597656 76.242188 98.394531 C 76.605469 97.191406 77.074219 96.03125 77.652344 94.914062 C 78.226562 93.796875 78.898438 92.742188 79.667969 91.746094 C 80.4375 90.753906 81.289062 89.835938 82.226562 89 C 83.164062 88.160156 84.167969 87.414062 85.242188 86.761719 C 86.316406 86.105469 87.4375 85.554688 88.613281 85.105469 C 89.785156 84.65625 90.992188 84.316406 92.226562 84.089844 C 93.464844 83.859375 94.710938 83.746094 95.96875 83.746094 L 100.550781 83.746094 C 101.804688 83.746094 103.050781 83.859375 104.289062 84.089844 C 105.523438 84.316406 106.730469 84.65625 107.902344 85.105469 C 109.078125 85.554688 110.199219 86.105469 111.273438 86.761719 C 112.347656 87.414062 113.351562 88.160156 114.289062 89 C 115.226562 89.835938 116.078125 90.753906 116.847656 91.746094 C 117.617188 92.742188 118.289062 93.796875 118.863281 94.914062 C 119.441406 96.03125 119.910156 97.191406 120.273438 98.394531 C 120.640625 99.597656 120.890625 100.824219 121.03125 102.074219 Z M 75.484375 102.074219 " fill-opacity="1" fill-rule="nonzero"/><g fill="#ededed" fill-opacity="1"><g transform="translate(37.965872, 150.808763)"><g><path d="M 12.421875 -16.890625 C 12.578125 -17.148438 12.804688 -17.328125 13.109375 -17.421875 C 13.421875 -17.515625 13.800781 -17.5625 14.25 -17.5625 C 14.707031 -17.5625 15.070312 -17.519531 15.34375 -17.4375 C 15.613281 -17.363281 15.820312 -17.269531 15.96875 -17.15625 C 16.113281 -17.050781 16.21875 -16.882812 16.28125 -16.65625 C 16.375 -16.382812 16.421875 -15.972656 16.421875 -15.421875 L 16.421875 -8.1875 C 16.421875 -6.082031 15.765625 -4.164062 14.453125 -2.4375 C 13.816406 -1.625 12.992188 -0.96875 11.984375 -0.46875 C 10.984375 0.03125 9.875 0.28125 8.65625 0.28125 C 7.4375 0.28125 6.328125 0.0234375 5.328125 -0.484375 C 4.328125 -0.992188 3.515625 -1.660156 2.890625 -2.484375 C 1.597656 -4.179688 0.953125 -6.097656 0.953125 -8.234375 L 0.953125 -15.4375 C 0.953125 -15.820312 0.960938 -16.101562 0.984375 -16.28125 C 1.015625 -16.46875 1.09375 -16.679688 1.21875 -16.921875 C 1.34375 -17.160156 1.554688 -17.328125 1.859375 -17.421875 C 2.171875 -17.515625 2.582031 -17.5625 3.09375 -17.5625 C 3.601562 -17.5625 4.007812 -17.515625 4.3125 -17.421875 C 4.613281 -17.328125 4.820312 -17.160156 4.9375 -16.921875 C 5.125 -16.554688 5.21875 -16.054688 5.21875 -15.421875 L 5.21875 -8.234375 C 5.21875 -7.265625 5.457031 -6.335938 5.9375 -5.453125 C 6.175781 -5.003906 6.535156 -4.644531 7.015625 -4.375 C 7.492188 -4.101562 8.0625 -3.96875 8.71875 -3.96875 C 9.875 -3.96875 10.738281 -4.398438 11.3125 -5.265625 C 11.894531 -6.128906 12.1875 -7.128906 12.1875 -8.265625 L 12.1875 -15.578125 C 12.1875 -16.203125 12.265625 -16.640625 12.421875 -16.890625 Z M 12.421875 -16.890625 "/></g></g></g><g fill="#ededed" fill-opacity="1"><g transform="translate(55.345114, 150.808763)"><g><path d="M 1.21875 -2.46875 C 0.800781 -2.976562 0.59375 -3.4375 0.59375 -3.84375 C 0.59375 -4.25 0.9375 -4.785156 1.625 -5.453125 C 2.019531 -5.835938 2.441406 -6.03125 2.890625 -6.03125 C 3.335938 -6.03125 3.960938 -5.628906 4.765625 -4.828125 C 4.984375 -4.554688 5.300781 -4.296875 5.71875 -4.046875 C 6.132812 -3.804688 6.519531 -3.6875 6.875 -3.6875 C 8.351562 -3.6875 9.09375 -4.289062 9.09375 -5.5 C 9.09375 -5.875 8.890625 -6.179688 8.484375 -6.421875 C 8.078125 -6.671875 7.570312 -6.851562 6.96875 -6.96875 C 6.363281 -7.082031 5.707031 -7.257812 5 -7.5 C 4.300781 -7.75 3.644531 -8.039062 3.03125 -8.375 C 2.425781 -8.707031 1.921875 -9.238281 1.515625 -9.96875 C 1.109375 -10.695312 0.90625 -11.570312 0.90625 -12.59375 C 0.90625 -14 1.425781 -15.222656 2.46875 -16.265625 C 3.519531 -17.304688 4.945312 -17.828125 6.75 -17.828125 C 7.707031 -17.828125 8.582031 -17.703125 9.375 -17.453125 C 10.164062 -17.210938 10.710938 -16.960938 11.015625 -16.703125 L 11.609375 -16.25 C 12.109375 -15.789062 12.359375 -15.398438 12.359375 -15.078125 C 12.359375 -14.765625 12.164062 -14.328125 11.78125 -13.765625 C 11.238281 -12.960938 10.679688 -12.5625 10.109375 -12.5625 C 9.765625 -12.5625 9.347656 -12.722656 8.859375 -13.046875 C 8.804688 -13.078125 8.710938 -13.15625 8.578125 -13.28125 C 8.441406 -13.414062 8.316406 -13.519531 8.203125 -13.59375 C 7.867188 -13.800781 7.441406 -13.90625 6.921875 -13.90625 C 6.410156 -13.90625 5.984375 -13.78125 5.640625 -13.53125 C 5.296875 -13.289062 5.125 -12.945312 5.125 -12.5 C 5.125 -12.0625 5.328125 -11.707031 5.734375 -11.4375 C 6.140625 -11.164062 6.644531 -10.984375 7.25 -10.890625 C 7.851562 -10.796875 8.515625 -10.648438 9.234375 -10.453125 C 9.953125 -10.253906 10.613281 -10.007812 11.21875 -9.71875 C 11.832031 -9.425781 12.34375 -8.925781 12.75 -8.21875 C 13.15625 -7.507812 13.359375 -6.632812 13.359375 -5.59375 C 13.359375 -4.5625 13.148438 -3.648438 12.734375 -2.859375 C 12.316406 -2.066406 11.773438 -1.457031 11.109375 -1.03125 C 9.816406 -0.1875 8.4375 0.234375 6.96875 0.234375 C 6.21875 0.234375 5.503906 0.144531 4.828125 -0.03125 C 4.160156 -0.21875 3.617188 -0.445312 3.203125 -0.71875 C 2.359375 -1.226562 1.769531 -1.722656 1.4375 -2.203125 Z M 1.21875 -2.46875 "/></g></g></g><g fill="#ededed" fill-opacity="1"><g transform="translate(69.301174, 150.808763)"><g><path d="M 12.421875 -16.890625 C 12.578125 -17.148438 12.804688 -17.328125 13.109375 -17.421875 C 13.421875 -17.515625 13.800781 -17.5625 14.25 -17.5625 C 14.707031 -17.5625 15.070312 -17.519531 15.34375 -17.4375 C 15.613281 -17.363281 15.820312 -17.269531 15.96875 -17.15625 C 16.113281 -17.050781 16.21875 -16.882812 16.28125 -16.65625 C 16.375 -16.382812 16.421875 -15.972656 16.421875 -15.421875 L 16.421875 -8.1875 C 16.421875 -6.082031 15.765625 -4.164062 14.453125 -2.4375 C 13.816406 -1.625 12.992188 -0.96875 11.984375 -0.46875 C 10.984375 0.03125 9.875 0.28125 8.65625 0.28125 C 7.4375 0.28125 6.328125 0.0234375 5.328125 -0.484375 C 4.328125 -0.992188 3.515625 -1.660156 2.890625 -2.484375 C 1.597656 -4.179688 0.953125 -6.097656 0.953125 -8.234375 L 0.953125 -15.4375 C 0.953125 -15.820312 0.960938 -16.101562 0.984375 -16.28125 C 1.015625 -16.46875 1.09375 -16.679688 1.21875 -16.921875 C 1.34375 -17.160156 1.554688 -17.328125 1.859375 -17.421875 C 2.171875 -17.515625 2.582031 -17.5625 3.09375 -17.5625 C 3.601562 -17.5625 4.007812 -17.515625 4.3125 -17.421875 C 4.613281 -17.328125 4.820312 -17.160156 4.9375 -16.921875 C 5.125 -16.554688 5.21875 -16.054688 5.21875 -15.421875 L 5.21875 -8.234375 C 5.21875 -7.265625 5.457031 -6.335938 5.9375 -5.453125 C 6.175781 -5.003906 6.535156 -4.644531 7.015625 -4.375 C 7.492188 -4.101562 8.0625 -3.96875 8.71875 -3.96875 C 9.875 -3.96875 10.738281 -4.398438 11.3125 -5.265625 C 11.894531 -6.128906 12.1875 -7.128906 12.1875 -8.265625 L 12.1875 -15.578125 C 12.1875 -16.203125 12.265625 -16.640625 12.421875 -16.890625 Z M 12.421875 -16.890625 "/></g></g></g><g fill="#ededed" fill-opacity="1"><g transform="translate(86.680415, 150.808763)"><g><path d="M 11.078125 -16.296875 L 17.546875 -2.9375 C 17.816406 -2.394531 17.953125 -1.988281 17.953125 -1.71875 C 17.953125 -1.144531 17.488281 -0.628906 16.5625 -0.171875 C 16.019531 0.0976562 15.59375 0.234375 15.28125 0.234375 C 14.96875 0.234375 14.710938 0.160156 14.515625 0.015625 C 14.316406 -0.117188 14.171875 -0.265625 14.078125 -0.421875 C 13.992188 -0.585938 13.875 -0.832031 13.71875 -1.15625 L 12.46875 -3.734375 L 5.84375 -3.734375 L 4.59375 -1.15625 C 4.4375 -0.832031 4.3125 -0.597656 4.21875 -0.453125 C 4.132812 -0.304688 3.992188 -0.15625 3.796875 0 C 3.597656 0.144531 3.34375 0.21875 3.03125 0.21875 C 2.71875 0.21875 2.289062 0.0820312 1.75 -0.1875 C 0.820312 -0.632812 0.359375 -1.144531 0.359375 -1.71875 C 0.359375 -1.988281 0.492188 -2.394531 0.765625 -2.9375 L 7.234375 -16.328125 C 7.410156 -16.691406 7.675781 -16.984375 8.03125 -17.203125 C 8.382812 -17.429688 8.765625 -17.546875 9.171875 -17.546875 C 10.023438 -17.546875 10.660156 -17.128906 11.078125 -16.296875 Z M 9.140625 -10.5625 L 7.5625 -7.28125 L 10.75 -7.28125 Z M 9.140625 -10.5625 "/></g></g></g><g fill="#ededed" fill-opacity="1"><g transform="translate(104.993263, 150.808763)"><g><path d="M 14.390625 -2.96875 C 14.628906 -2.394531 14.75 -1.976562 14.75 -1.71875 C 14.75 -1.113281 14.253906 -0.601562 13.265625 -0.1875 C 12.753906 0.03125 12.34375 0.140625 12.03125 0.140625 C 11.71875 0.140625 11.460938 0.0664062 11.265625 -0.078125 C 11.066406 -0.234375 10.914062 -0.390625 10.8125 -0.546875 C 10.65625 -0.847656 10.035156 -2.296875 8.953125 -4.890625 L 8.203125 -4.828125 L 5.1875 -4.828125 L 5.1875 -2.125 C 5.1875 -1.757812 5.175781 -1.484375 5.15625 -1.296875 C 5.132812 -1.117188 5.0625 -0.910156 4.9375 -0.671875 C 4.707031 -0.242188 4.082031 -0.03125 3.0625 -0.03125 C 1.945312 -0.03125 1.289062 -0.320312 1.09375 -0.90625 C 1 -1.175781 0.953125 -1.59375 0.953125 -2.15625 L 0.953125 -15.4375 C 0.953125 -15.800781 0.960938 -16.078125 0.984375 -16.265625 C 1.015625 -16.453125 1.09375 -16.664062 1.21875 -16.90625 C 1.445312 -17.332031 2.070312 -17.546875 3.09375 -17.546875 L 8.265625 -17.546875 C 9.660156 -17.546875 11.023438 -17.035156 12.359375 -16.015625 C 12.992188 -15.515625 13.515625 -14.84375 13.921875 -14 C 14.335938 -13.15625 14.546875 -12.210938 14.546875 -11.171875 C 14.546875 -9.367188 13.953125 -7.882812 12.765625 -6.71875 C 13.109375 -5.875 13.648438 -4.625 14.390625 -2.96875 Z M 5.1875 -9.078125 L 8.265625 -9.078125 C 8.722656 -9.078125 9.179688 -9.25 9.640625 -9.59375 C 10.109375 -9.945312 10.34375 -10.472656 10.34375 -11.171875 C 10.34375 -11.878906 10.109375 -12.410156 9.640625 -12.765625 C 9.179688 -13.128906 8.703125 -13.3125 8.203125 -13.3125 L 5.1875 -13.3125 Z M 5.1875 -9.078125 "/></g></g></g><g fill="#ededed" fill-opacity="1"><g transform="translate(120.09837, 150.808763)"><g><path d="M 0.953125 -15.4375 C 0.953125 -15.800781 0.960938 -16.078125 0.984375 -16.265625 C 1.015625 -16.453125 1.09375 -16.664062 1.21875 -16.90625 C 1.445312 -17.332031 2.070312 -17.546875 3.09375 -17.546875 C 4.207031 -17.546875 4.867188 -17.25 5.078125 -16.65625 C 5.148438 -16.382812 5.1875 -15.972656 5.1875 -15.421875 L 5.1875 -2.109375 C 5.1875 -1.722656 5.175781 -1.441406 5.15625 -1.265625 C 5.132812 -1.085938 5.0625 -0.878906 4.9375 -0.640625 C 4.707031 -0.210938 4.082031 0 3.0625 0 C 1.945312 0 1.289062 -0.300781 1.09375 -0.90625 C 1 -1.164062 0.953125 -1.570312 0.953125 -2.125 Z M 0.953125 -15.4375 "/></g></g></g><g fill="#ededed" fill-opacity="1"><g transform="translate(126.250526, 150.808763)"><g><path d="M 9.1875 -17.765625 C 11.550781 -17.765625 13.601562 -16.910156 15.34375 -15.203125 C 17.082031 -13.492188 17.953125 -11.375 17.953125 -8.84375 C 17.953125 -6.3125 17.117188 -4.15625 15.453125 -2.375 C 13.796875 -0.601562 11.753906 0.28125 9.328125 0.28125 C 6.910156 0.28125 4.847656 -0.59375 3.140625 -2.34375 C 1.441406 -4.101562 0.59375 -6.195312 0.59375 -8.625 C 0.59375 -9.945312 0.832031 -11.1875 1.3125 -12.34375 C 1.789062 -13.5 2.425781 -14.46875 3.21875 -15.25 C 4.019531 -16.03125 4.941406 -16.644531 5.984375 -17.09375 C 7.023438 -17.539062 8.09375 -17.765625 9.1875 -17.765625 Z M 4.828125 -8.734375 C 4.828125 -7.316406 5.285156 -6.164062 6.203125 -5.28125 C 7.128906 -4.394531 8.15625 -3.953125 9.28125 -3.953125 C 10.414062 -3.953125 11.4375 -4.378906 12.34375 -5.234375 C 13.257812 -6.097656 13.71875 -7.253906 13.71875 -8.703125 C 13.71875 -10.160156 13.257812 -11.328125 12.34375 -12.203125 C 11.425781 -13.085938 10.398438 -13.53125 9.265625 -13.53125 C 8.128906 -13.53125 7.101562 -13.085938 6.1875 -12.203125 C 5.28125 -11.316406 4.828125 -10.160156 4.828125 -8.734375 Z M 4.828125 -8.734375 "/></g></g></g><g fill="#ededed" fill-opacity="1"><g transform="translate(144.802751, 150.808763)"><g><path d="M 1.21875 -2.46875 C 0.800781 -2.976562 0.59375 -3.4375 0.59375 -3.84375 C 0.59375 -4.25 0.9375 -4.785156 1.625 -5.453125 C 2.019531 -5.835938 2.441406 -6.03125 2.890625 -6.03125 C 3.335938 -6.03125 3.960938 -5.628906 4.765625 -4.828125 C 4.984375 -4.554688 5.300781 -4.296875 5.71875 -4.046875 C 6.132812 -3.804688 6.519531 -3.6875 6.875 -3.6875 C 8.351562 -3.6875 9.09375 -4.289062 9.09375 -5.5 C 9.09375 -5.875 8.890625 -6.179688 8.484375 -6.421875 C 8.078125 -6.671875 7.570312 -6.851562 6.96875 -6.96875 C 6.363281 -7.082031 5.707031 -7.257812 5 -7.5 C 4.300781 -7.75 3.644531 -8.039062 3.03125 -8.375 C 2.425781 -8.707031 1.921875 -9.238281 1.515625 -9.96875 C 1.109375 -10.695312 0.90625 -11.570312 0.90625 -12.59375 C 0.90625 -14 1.425781 -15.222656 2.46875 -16.265625 C 3.519531 -17.304688 4.945312 -17.828125 6.75 -17.828125 C 7.707031 -17.828125 8.582031 -17.703125 9.375 -17.453125 C 10.164062 -17.210938 10.710938 -16.960938 11.015625 -16.703125 L 11.609375 -16.25 C 12.109375 -15.789062 12.359375 -15.398438 12.359375 -15.078125 C 12.359375 -14.765625 12.164062 -14.328125 11.78125 -13.765625 C 11.238281 -12.960938 10.679688 -12.5625 10.109375 -12.5625 C 9.765625 -12.5625 9.347656 -12.722656 8.859375 -13.046875 C 8.804688 -13.078125 8.710938 -13.15625 8.578125 -13.28125 C 8.441406 -13.414062 8.316406 -13.519531 8.203125 -13.59375 C 7.867188 -13.800781 7.441406 -13.90625 6.921875 -13.90625 C 6.410156 -13.90625 5.984375 -13.78125 5.640625 -13.53125 C 5.296875 -13.289062 5.125 -12.945312 5.125 -12.5 C 5.125 -12.0625 5.328125 -11.707031 5.734375 -11.4375 C 6.140625 -11.164062 6.644531 -10.984375 7.25 -10.890625 C 7.851562 -10.796875 8.515625 -10.648438 9.234375 -10.453125 C 9.953125 -10.253906 10.613281 -10.007812 11.21875 -9.71875 C 11.832031 -9.425781 12.34375 -8.925781 12.75 -8.21875 C 13.15625 -7.507812 13.359375 -6.632812 13.359375 -5.59375 C 13.359375 -4.5625 13.148438 -3.648438 12.734375 -2.859375 C 12.316406 -2.066406 11.773438 -1.457031 11.109375 -1.03125 C 9.816406 -0.1875 8.4375 0.234375 6.96875 0.234375 C 6.21875 0.234375 5.503906 0.144531 4.828125 -0.03125 C 4.160156 -0.21875 3.617188 -0.445312 3.203125 -0.71875 C 2.359375 -1.226562 1.769531 -1.722656 1.4375 -2.203125 Z M 1.21875 -2.46875 "/></g></g></g></svg>