<svg xmlns="http://www.w3.org/2000/svg" xmlns:xlink="http://www.w3.org/1999/xlink" width="236" zoomAndPan="magnify" viewBox="0 0 177 191.999996" height="256" preserveAspectRatio="xMidYMid meet" version="1.0"><defs><g/></defs><path stroke-linecap="round" transform="matrix(0.138, 0, 0, 0.138, 54.168255, 37.621367)" fill="none" stroke-linejoin="round" d="M 437.497959 304.232643 L 397.416434 368.091344 M 397.416434 368.091344 C 392.349631 376.101988 386.490255 384.480612 378.309775 389.151128 M 378.309775 389.151128 L 323.225984 421.080479 M 323.225984 421.080479 C 302.279424 432.997373 292.457186 428.072101 295.033047 401.181247 M 295.033047 401.181247 L 300.637667 340.662673 M 300.637667 340.662673 C 301.57177 330.868741 305.393102 322.490118 309.129516 316.545824 M 309.129516 316.545824 L 379.102347 207.991694 M 336.020369 334.605155 C 341.483458 326.651123 352.664392 324.499855 361.297772 329.764801 C 370.185906 335.142972 373.101441 346.323906 367.808189 354.730836 M 368.147863 354.532693 C 372.478705 348.192112 381.338534 346.43713 388.245237 350.626442 C 395.321778 354.928979 397.642883 363.84542 393.425265 370.525674 M 309.808863 319.263215 C 314.196319 312.894329 323.169372 311.139347 330.076075 315.385271 C 337.237534 319.716114 339.615252 328.689167 335.369327 335.426033 M 297.29754 376.413356 C 307.261309 378.22495 316.574036 381.734914 325.235722 386.943248 C 332.736854 391.557152 339.502027 397.303303 345.163259 404.068476 M 434.186138 380.432831 L 434.186138 446.697555 M 434.186138 446.697555 C 434.186138 462.209332 421.136997 475.003717 405.342159 475.003717 M 405.342159 475.003717 L 91.256989 475.003717 M 91.256989 475.003717 C 75.518763 475.003717 62.526235 462.29425 62.526235 446.697555 " stroke="#ededed" stroke-width="10" stroke-opacity="1" stroke-miterlimit="2.613"/><path stroke-linecap="round" transform="matrix(0.138, 0, 0, 0.138, 54.168255, 37.621367)" fill="none" stroke-linejoin="round" d="M 62.526235 446.697555 L 62.526235 138.188699 L 187.04504 24.992358 L 405.342159 24.992358 M 405.342159 24.992358 C 421.221916 24.992358 434.186138 37.786743 434.186138 53.29852 M 434.186138 53.29852 L 434.186138 259.084315 M 192.791191 24.992358 L 192.791191 129.357176 " stroke="#ededed" stroke-width="10" stroke-opacity="1" stroke-miterlimit="2.613"/><path stroke-linecap="round" transform="matrix(0.138, 0, 0, 0.138, 54.168255, 37.621367)" fill="none" stroke-linejoin="round" d="M 192.791191 129.357176 C 192.791191 137.679188 185.799569 144.500973 177.392639 144.500973 M 177.392639 144.500973 L 62.526235 144.500973 M 267.80252 72.999609 L 376.696324 72.999609 M 376.696324 72.999609 C 380.432737 72.999609 383.489802 76.283123 383.489802 80.330904 M 383.489802 80.330904 L 383.489802 142.321398 M 383.489802 142.321398 C 383.489802 146.36918 380.432737 149.652694 376.696324 149.652694 M 376.696324 149.652694 L 267.80252 149.652694 M 267.80252 149.652694 C 264.0378 149.652694 261.009041 146.36918 261.009041 142.321398 M 261.009041 142.321398 L 261.009041 80.330904 M 261.009041 80.330904 C 261.009041 76.283123 264.0378 72.999609 267.80252 72.999609 M 107.957625 215.46452 L 321.952207 215.46452 M 107.957625 316.149537 L 252.064294 316.149537 M 107.957625 416.862861 L 252.064294 416.862861 " stroke="#ededed" stroke-width="10" stroke-opacity="1" stroke-miterlimit="2.613"/><g fill="#ededed" fill-opacity="1"><g transform="translate(38.190263, 148.600172)"><g><path d="M 17.015625 -17.328125 C 17.960938 -16.859375 18.4375 -16.347656 18.4375 -15.796875 C 18.4375 -15.535156 18.316406 -15.148438 18.078125 -14.640625 L 11.453125 -1.203125 C 11.273438 -0.847656 11.003906 -0.5625 10.640625 -0.34375 C 10.285156 -0.132812 9.914062 -0.03125 9.53125 -0.03125 L 9.28125 -0.03125 C 8.882812 -0.03125 8.503906 -0.132812 8.140625 -0.34375 C 7.785156 -0.5625 7.519531 -0.847656 7.34375 -1.203125 L 0.71875 -14.640625 C 0.476562 -15.148438 0.359375 -15.535156 0.359375 -15.796875 C 0.359375 -16.347656 0.832031 -16.859375 1.78125 -17.328125 C 2.300781 -17.597656 2.703125 -17.734375 2.984375 -17.734375 C 3.265625 -17.734375 3.476562 -17.703125 3.625 -17.640625 C 3.769531 -17.578125 3.90625 -17.460938 4.03125 -17.296875 C 4.175781 -17.109375 4.304688 -16.894531 4.421875 -16.65625 C 4.546875 -16.425781 4.851562 -15.765625 5.34375 -14.671875 C 5.84375 -13.578125 6.375 -12.414062 6.9375 -11.1875 C 7.507812 -9.957031 8.046875 -8.789062 8.546875 -7.6875 C 9.054688 -6.59375 9.34375 -5.984375 9.40625 -5.859375 L 14.203125 -16.375 C 14.335938 -16.675781 14.453125 -16.914062 14.546875 -17.09375 C 14.828125 -17.519531 15.175781 -17.734375 15.59375 -17.734375 C 16.007812 -17.734375 16.484375 -17.597656 17.015625 -17.328125 Z M 17.015625 -17.328125 "/></g></g></g><g fill="#ededed" fill-opacity="1"><g transform="translate(56.982297, 148.600172)"><g><path d="M 5.203125 -4.25 L 12.59375 -4.25 C 12.96875 -4.25 13.242188 -4.234375 13.421875 -4.203125 C 13.609375 -4.179688 13.820312 -4.109375 14.0625 -3.984375 C 14.5 -3.753906 14.71875 -3.128906 14.71875 -2.109375 C 14.71875 -0.992188 14.421875 -0.335938 13.828125 -0.140625 C 13.554688 -0.046875 13.140625 0 12.578125 0 L 3.078125 0 C 1.953125 0 1.296875 -0.300781 1.109375 -0.90625 C 1.003906 -1.164062 0.953125 -1.578125 0.953125 -2.140625 L 0.953125 -15.484375 C 0.953125 -16.296875 1.101562 -16.847656 1.40625 -17.140625 C 1.71875 -17.441406 2.296875 -17.59375 3.140625 -17.59375 L 12.59375 -17.59375 C 12.96875 -17.59375 13.242188 -17.578125 13.421875 -17.546875 C 13.609375 -17.523438 13.820312 -17.453125 14.0625 -17.328125 C 14.5 -17.097656 14.71875 -16.472656 14.71875 -15.453125 C 14.71875 -14.335938 14.421875 -13.679688 13.828125 -13.484375 C 13.554688 -13.390625 13.140625 -13.34375 12.578125 -13.34375 L 5.203125 -13.34375 L 5.203125 -10.921875 L 9.953125 -10.921875 C 10.328125 -10.921875 10.601562 -10.90625 10.78125 -10.875 C 10.96875 -10.851562 11.179688 -10.78125 11.421875 -10.65625 C 11.859375 -10.425781 12.078125 -9.800781 12.078125 -8.78125 C 12.078125 -7.664062 11.769531 -7.007812 11.15625 -6.8125 C 10.882812 -6.71875 10.46875 -6.671875 9.90625 -6.671875 L 5.203125 -6.671875 Z M 5.203125 -4.25 "/></g></g></g><g fill="#ededed" fill-opacity="1"><g transform="translate(72.29433, 148.600172)"><g><path d="M 12.3125 -16.859375 C 12.46875 -17.140625 12.695312 -17.328125 13 -17.421875 C 13.3125 -17.515625 13.691406 -17.5625 14.140625 -17.5625 C 14.597656 -17.5625 14.96875 -17.519531 15.25 -17.4375 C 15.53125 -17.363281 15.738281 -17.269531 15.875 -17.15625 C 16.007812 -17.039062 16.109375 -16.875 16.171875 -16.65625 C 16.265625 -16.394531 16.3125 -15.988281 16.3125 -15.4375 L 16.3125 -2.109375 C 16.3125 -1.722656 16.300781 -1.441406 16.28125 -1.265625 C 16.257812 -1.097656 16.1875 -0.890625 16.0625 -0.640625 C 15.832031 -0.210938 15.207031 0 14.1875 0 C 13.5625 0 13.128906 -0.046875 12.890625 -0.140625 C 12.648438 -0.234375 12.445312 -0.382812 12.28125 -0.59375 C 8.6875 -5.394531 6.320312 -8.535156 5.1875 -10.015625 L 5.1875 -2.109375 C 5.1875 -1.722656 5.171875 -1.441406 5.140625 -1.265625 C 5.117188 -1.097656 5.046875 -0.890625 4.921875 -0.640625 C 4.691406 -0.210938 4.066406 0 3.046875 0 C 2.054688 0 1.445312 -0.210938 1.21875 -0.640625 C 1.09375 -0.890625 1.015625 -1.109375 0.984375 -1.296875 C 0.960938 -1.484375 0.953125 -1.765625 0.953125 -2.140625 L 0.953125 -15.53125 C 0.953125 -16.132812 1.03125 -16.578125 1.1875 -16.859375 C 1.34375 -17.140625 1.570312 -17.328125 1.875 -17.421875 C 2.175781 -17.515625 2.566406 -17.5625 3.046875 -17.5625 C 3.523438 -17.5625 3.90625 -17.515625 4.1875 -17.421875 C 4.46875 -17.335938 4.664062 -17.242188 4.78125 -17.140625 C 4.84375 -17.085938 5.023438 -16.878906 5.328125 -16.515625 C 8.703125 -11.921875 10.957031 -8.890625 12.09375 -7.421875 L 12.09375 -15.53125 C 12.09375 -16.132812 12.164062 -16.578125 12.3125 -16.859375 Z M 12.3125 -16.859375 "/></g></g></g><g fill="#ededed" fill-opacity="1"><g transform="translate(89.57437, 148.600172)"><g><path d="M 2.109375 -17.609375 L 15.453125 -17.609375 C 15.960938 -17.609375 16.335938 -17.546875 16.578125 -17.421875 C 16.816406 -17.304688 16.976562 -17.117188 17.0625 -16.859375 C 17.144531 -16.609375 17.1875 -16.273438 17.1875 -15.859375 C 17.1875 -15.441406 17.144531 -15.109375 17.0625 -14.859375 C 16.976562 -14.617188 16.84375 -14.453125 16.65625 -14.359375 C 16.363281 -14.210938 15.957031 -14.140625 15.4375 -14.140625 L 10.84375 -14.140625 L 10.84375 -2.0625 C 10.84375 -1.695312 10.832031 -1.425781 10.8125 -1.25 C 10.789062 -1.070312 10.71875 -0.863281 10.59375 -0.625 C 10.476562 -0.394531 10.265625 -0.234375 9.953125 -0.140625 C 9.648438 -0.046875 9.25 0 8.75 0 C 8.257812 0 7.863281 -0.046875 7.5625 -0.140625 C 7.269531 -0.234375 7.0625 -0.394531 6.9375 -0.625 C 6.820312 -0.863281 6.753906 -1.070312 6.734375 -1.25 C 6.710938 -1.4375 6.703125 -1.71875 6.703125 -2.09375 L 6.703125 -14.140625 L 2.09375 -14.140625 C 1.570312 -14.140625 1.191406 -14.195312 0.953125 -14.3125 C 0.710938 -14.4375 0.550781 -14.625 0.46875 -14.875 C 0.394531 -15.132812 0.359375 -15.472656 0.359375 -15.890625 C 0.359375 -16.304688 0.394531 -16.632812 0.46875 -16.875 C 0.550781 -17.125 0.691406 -17.300781 0.890625 -17.40625 C 1.171875 -17.539062 1.578125 -17.609375 2.109375 -17.609375 Z M 2.109375 -17.609375 "/></g></g></g><g fill="#ededed" fill-opacity="1"><g transform="translate(107.118401, 148.600172)"><g><path d="M 11.109375 -16.34375 L 17.59375 -2.953125 C 17.863281 -2.410156 18 -2.003906 18 -1.734375 C 18 -1.148438 17.535156 -0.628906 16.609375 -0.171875 C 16.066406 0.0976562 15.640625 0.234375 15.328125 0.234375 C 15.015625 0.234375 14.753906 0.160156 14.546875 0.015625 C 14.347656 -0.117188 14.203125 -0.265625 14.109375 -0.421875 C 14.023438 -0.585938 13.90625 -0.832031 13.75 -1.15625 L 12.5 -3.75 L 5.859375 -3.75 L 4.609375 -1.15625 C 4.453125 -0.832031 4.328125 -0.597656 4.234375 -0.453125 C 4.148438 -0.304688 4.003906 -0.15625 3.796875 0 C 3.597656 0.144531 3.34375 0.21875 3.03125 0.21875 C 2.71875 0.21875 2.289062 0.0820312 1.75 -0.1875 C 0.820312 -0.632812 0.359375 -1.148438 0.359375 -1.734375 C 0.359375 -2.003906 0.492188 -2.410156 0.765625 -2.953125 L 7.25 -16.375 C 7.425781 -16.738281 7.691406 -17.03125 8.046875 -17.25 C 8.410156 -17.476562 8.789062 -17.59375 9.1875 -17.59375 C 10.050781 -17.59375 10.691406 -17.175781 11.109375 -16.34375 Z M 9.171875 -10.578125 L 7.578125 -7.296875 L 10.78125 -7.296875 Z M 9.171875 -10.578125 "/></g></g></g><g fill="#ededed" fill-opacity="1"><g transform="translate(125.478443, 148.600172)"><g><path d="M 1.21875 -2.46875 C 0.800781 -2.976562 0.59375 -3.4375 0.59375 -3.84375 C 0.59375 -4.257812 0.9375 -4.800781 1.625 -5.46875 C 2.03125 -5.851562 2.457031 -6.046875 2.90625 -6.046875 C 3.351562 -6.046875 3.976562 -5.644531 4.78125 -4.84375 C 5 -4.570312 5.316406 -4.3125 5.734375 -4.0625 C 6.148438 -3.820312 6.535156 -3.703125 6.890625 -3.703125 C 8.378906 -3.703125 9.125 -4.304688 9.125 -5.515625 C 9.125 -5.890625 8.914062 -6.195312 8.5 -6.4375 C 8.09375 -6.6875 7.585938 -6.867188 6.984375 -6.984375 C 6.378906 -7.097656 5.722656 -7.273438 5.015625 -7.515625 C 4.304688 -7.765625 3.648438 -8.054688 3.046875 -8.390625 C 2.441406 -8.734375 1.929688 -9.269531 1.515625 -10 C 1.109375 -10.726562 0.90625 -11.601562 0.90625 -12.625 C 0.90625 -14.03125 1.429688 -15.253906 2.484375 -16.296875 C 3.535156 -17.347656 4.960938 -17.875 6.765625 -17.875 C 7.722656 -17.875 8.597656 -17.75 9.390625 -17.5 C 10.179688 -17.257812 10.734375 -17.007812 11.046875 -16.75 L 11.640625 -16.296875 C 12.140625 -15.828125 12.390625 -15.429688 12.390625 -15.109375 C 12.390625 -14.796875 12.195312 -14.359375 11.8125 -13.796875 C 11.257812 -12.992188 10.695312 -12.59375 10.125 -12.59375 C 9.789062 -12.59375 9.375 -12.753906 8.875 -13.078125 C 8.832031 -13.109375 8.742188 -13.1875 8.609375 -13.3125 C 8.472656 -13.445312 8.347656 -13.550781 8.234375 -13.625 C 7.898438 -13.832031 7.472656 -13.9375 6.953125 -13.9375 C 6.429688 -13.9375 6 -13.8125 5.65625 -13.5625 C 5.3125 -13.320312 5.140625 -12.976562 5.140625 -12.53125 C 5.140625 -12.09375 5.34375 -11.738281 5.75 -11.46875 C 6.15625 -11.195312 6.660156 -11.015625 7.265625 -10.921875 C 7.878906 -10.828125 8.546875 -10.675781 9.265625 -10.46875 C 9.984375 -10.269531 10.644531 -10.023438 11.25 -9.734375 C 11.863281 -9.453125 12.375 -8.953125 12.78125 -8.234375 C 13.1875 -7.523438 13.390625 -6.648438 13.390625 -5.609375 C 13.390625 -4.578125 13.179688 -3.664062 12.765625 -2.875 C 12.347656 -2.082031 11.804688 -1.46875 11.140625 -1.03125 C 9.835938 -0.1875 8.453125 0.234375 6.984375 0.234375 C 6.234375 0.234375 5.519531 0.144531 4.84375 -0.03125 C 4.175781 -0.21875 3.632812 -0.445312 3.21875 -0.71875 C 2.363281 -1.226562 1.769531 -1.722656 1.4375 -2.203125 Z M 1.21875 -2.46875 "/></g></g></g></svg>