<svg viewBox="0 0 128 128" xml:space="preserve" xmlns="http://www.w3.org/2000/svg" enable-background="new 0 0 128 128"><path d="M48 98c0 1.654 1.346 3 3 3h26c1.654 0 3-1.346 3-3v-7.382c.615-.703 1-1.612 1-2.618 0-2.206-1.794-4-4-4H51c-2.206 0-4 1.794-4 4 0 1.005.385 1.914 1 2.618V98zm29 1H51c-.552 0-1-.449-1-1v-6.142c.322.084.653.142 1 .142h1v3c0 1.103.897 2 2 2h20c1.103 0 2-.897 2-2v-3h1c.347 0 .678-.058 1-.142V98c0 .551-.448 1-1 1zm-3-7v3H54v-3h20zm-23-6h26c1.103 0 2 .897 2 2s-.897 2-2 2H51c-1.103 0-2-.897-2-2s.897-2 2-2z" fill="#ededed" class="fill-000000"></path><path d="M103 61h-7.026A4.948 4.948 0 0 0 97 58V17h1c1.654 0 3-1.346 3-3V4c0-1.654-1.346-3-3-3H30c-1.654 0-3 1.346-3 3v10c0 1.654 1.346 3 3 3h1v41c0 1.13.391 2.162 1.026 3H25c-1.654 0-3 1.346-3 3v12c0 1.654 1.346 3 3 3h1v41c0 3.925 3.075 7 7 7h62c3.925 0 7-3.075 7-7V79h1c1.654 0 3-1.346 3-3V64c0-1.654-1.346-3-3-3zM29 14V4c0-.551.448-1 1-1h68c.552 0 1 .449 1 1v10c0 .551-.448 1-1 1H30c-.552 0-1-.449-1-1zm4 44V17h62v41c0 1.626-1.374 3-3 3H36c-1.626 0-3-1.374-3-3zm67 62c0 2.804-2.196 5-5 5H33c-2.804 0-5-2.196-5-5V79h72v41zm4-44c0 .551-.448 1-1 1H25c-.552 0-1-.449-1-1V64c0-.551.448-1 1-1h78c.552 0 1 .449 1 1v12z" fill="#ededed" class="fill-000000"></path><path d="M75 21H53c-2.206 0-4 1.794-4 4 0 1.005.385 1.914 1 2.618V35c0 1.654 1.346 3 3 3h22c1.654 0 3-1.346 3-3v-7.382c.615-.703 1-1.612 1-2.618 0-2.206-1.794-4-4-4zm-22 2h22c1.103 0 2 .897 2 2 0 .597-.268 1.127-.684 1.494-.009.009-.02.015-.029.024A1.982 1.982 0 0 1 75 27H53c-.493 0-.938-.186-1.287-.482-.009-.009-.02-.015-.029-.024A1.987 1.987 0 0 1 51 25c0-1.103.897-2 2-2zm3 6h16v3H56v-3zm19 7H53c-.552 0-1-.449-1-1v-6.142c.322.084.653.142 1 .142h1v3c0 1.103.897 2 2 2h16c1.103 0 2-.897 2-2v-3h1c.347 0 .678-.058 1-.142V35c0 .551-.448 1-1 1z" fill="#ededed" class="fill-000000"></path></svg>